<svg xmlns="http://www.w3.org/2000/svg" viewBox="0 0 1280 380" width="1280" height="380" role="img" aria-label="KNOTstore · LENS-64S — object storage">
<defs><linearGradient id="kg" x1="0" y1="0" x2="1" y2="1"><stop offset="0" stop-color="#2D4BFF"/><stop offset="1" stop-color="#6FA0FF"/></linearGradient></defs>
<g opacity="0.92"><polygon points="150.0,62.0 260.8,126.0 260.8,254.0 150.0,318.0 39.2,254.0 39.2,126.0" fill="none" stroke="#4F6BFF" stroke-width="7" stroke-linejoin="round"/><path d="M150 190.0 L150.0 62.0" stroke="#4F6BFF" stroke-width="7" fill="none"/><path d="M150 190.0 L260.8 254.0" stroke="#4F6BFF" stroke-width="7" fill="none"/><path d="M150 190.0 L39.2 254.0" stroke="#4F6BFF" stroke-width="7" fill="none"/><g transform="translate(55,95.0)"><path d="M169.92 95.00L169.90 96.46L169.83 97.92L169.72 99.38L169.56 100.83L169.36 102.28L169.12 103.72L168.83 105.16L168.50 106.58L168.13 107.99L167.71 109.39L167.25 110.77L166.75 112.14L166.21 113.49L165.63 114.82L165.01 116.14L164.35 117.43L163.66 118.70L162.92 119.95L162.16 121.18L161.35 122.38L160.51 123.56L159.64 124.70L158.74 125.82L157.80 126.91L156.84 127.98L155.85 129.01L154.82 130.01L153.78 130.97L152.71 131.91L151.61 132.81L150.49 133.68L149.35 134.51L148.19 135.31L147.01 136.07L145.81 136.80L144.60 137.49L143.37 138.14L142.13 138.76L140.88 139.34L139.62 139.89L138.34 140.40L137.06 140.87L135.77 141.30L134.48 141.70L133.18 142.06L131.88 142.39L130.58 142.68L129.28 142.93L127.98 143.15L126.68 143.33L125.38 143.48L124.09 143.60L122.81 143.68L121.53 143.73L120.26 143.75L118.99 143.74L117.74 143.69L116.50 143.62L115.27 143.51L114.06 143.38L112.85 143.22L111.66 143.04L110.49 142.82L109.33 142.59L108.19 142.33L107.07 142.04L105.96 141.74L104.87 141.41L103.81 141.07L102.76 140.70L101.73 140.32L100.72 139.92L99.73 139.51L98.76 139.08L97.81 138.64L96.89 138.18L95.98 137.72L95.10 137.24L94.24 136.76L93.40 136.26L92.58 135.76L91.78 135.26L91.00 134.75L90.25 134.23L89.51 133.71L88.79 133.19L88.10 132.67L87.42 132.15L86.76 131.63L86.12 131.11L85.50 130.60L84.90 130.09L84.31 129.58L83.74 129.07L83.18 128.58L82.64 128.09L82.12 127.60L81.61 127.12L81.11 126.65L80.62 126.19L80.15 125.74L79.68 125.30L79.23 124.87L78.78 124.45L78.34 124.04L77.91 123.63L77.49 123.24L77.07 122.87L76.65 122.50L76.24 122.14L75.84 121.80L75.43 121.47L75.02 121.14L74.62 120.83L74.22 120.53L73.81 120.24L73.40 119.97L72.99 119.70L72.58 119.44L72.16 119.19L71.73 118.95L71.30 118.72L70.86 118.50L70.42 118.28L69.96 118.08L69.50 117.88L69.03 117.68L68.55 117.49L68.06 117.31L67.56 117.13L67.04 116.95L66.52 116.77L65.98 116.60L65.43 116.43L64.87 116.26L64.29 116.08L63.70 115.91L63.10 115.73L62.49 115.55L61.86 115.36L61.22 115.17L60.56 114.97L59.89 114.77L59.21 114.55L58.51 114.33L57.80 114.10L57.08 113.86L56.35 113.60L55.60 113.34L54.85 113.06L54.08 112.76L53.30 112.45L52.51 112.13L51.71 111.78L50.90 111.42L50.09 111.04L49.26 110.65L48.43 110.23L47.59 109.79L46.75 109.33L45.90 108.85L45.05 108.34" fill="none" stroke="url(#kg)" stroke-width="9" stroke-linecap="round" stroke-linejoin="round"/><path d="M21.20 75.15L20.93 73.82L20.70 72.47L20.50 71.12L20.34 69.75L20.22 68.37L20.13 66.99L20.09 65.60L20.08 64.20L20.11 62.80L20.18 61.40L20.29 60.00L20.44 58.59L20.64 57.19L20.87 55.79L21.14 54.40L21.46 53.00L21.81 51.62L22.21 50.25L22.64 48.88L23.12 47.52L23.64 46.18L24.20 44.85L24.79 43.54L25.43 42.24L26.11 40.96L26.83 39.70L27.58 38.47L28.37 37.25L29.20 36.05L30.06 34.88L30.96 33.74L31.90 32.62L32.87 31.54L33.87 30.48L34.91 29.45L35.97 28.45L37.07 27.48L38.19 26.55L39.35 25.65L40.53 24.79L41.74 23.97L42.97 23.18L44.22 22.43L45.50 21.72L46.80 21.04L48.12 20.41L49.45 19.82L50.81 19.27L52.18 18.76L53.56 18.29L54.96 17.87L56.37 17.49L57.79 17.15L59.21 16.85L60.65 16.60L62.09 16.39L63.54 16.23L64.98 16.11L66.43 16.03L67.88 16.00L69.33 16.01L70.78 16.06L72.22 16.16L73.66 16.30L75.09 16.48L76.51 16.70L77.92 16.97L79.32 17.27L80.71 17.61L82.09 18.00L83.45 18.42L84.79 18.88L86.12 19.38L87.43 19.92L88.72 20.49L90.00 21.09L91.25 21.73L92.47 22.41L93.68 23.11L94.86 23.85L96.01 24.61L97.14 25.41L98.25 26.23L99.32 27.08L100.37 27.95L101.39 28.85L102.39 29.77L103.35 30.71L104.28 31.68L105.18 32.66L106.05 33.66L106.89 34.68L107.70 35.71L108.48 36.76L109.23 37.82L109.94 38.89L110.62 39.97L111.27 41.06L111.89 42.16L112.48 43.27L113.04 44.38L113.56 45.50L114.06 46.62L114.52 47.74L114.95 48.86L115.36 49.98L115.73 51.11L116.07 52.22L116.39 53.34L116.68 54.45L116.94 55.55L117.18 56.65L117.38 57.74L117.57 58.82L117.73 59.90L117.86 60.96L117.98 62.01L118.07 63.06L118.14 64.08L118.19 65.10L118.21 66.10L118.23 67.09L118.22 68.07L118.20 69.03L118.16 69.97L118.10 70.90L118.04 71.81L117.96 72.71L117.86 73.59L117.76 74.45L117.65 75.30L117.53 76.13L117.40 76.94L117.26 77.74L117.12 78.52L116.97 79.28L116.82 80.03L116.67 80.76L116.51 81.47L116.36 82.17L116.20 82.85L116.04 83.51L115.89 84.17L115.73 84.80L115.58 85.43L115.44 86.04L115.29 86.63L115.16 87.22L115.03 87.79L114.90 88.36L114.78 88.91L114.67 89.45L114.57 89.98L114.47 90.51L114.39 91.03L114.31 91.54L114.24 92.04L114.19 92.54L114.14 93.04L114.10 93.53L114.08 94.02L114.06 94.51L114.06 95.00L114.06 95.49L114.08 95.98L114.10 96.47L114.14 96.96L114.19 97.46L114.24 97.96L114.31 98.46L114.39 98.97L114.47 99.49L114.57 100.02L114.67 100.55L114.78 101.09L114.90 101.64L115.03 102.21L115.16 102.78L115.29 103.37L115.44 103.96L115.58 104.57L115.73 105.20L115.89 105.83L116.04 106.49L116.20 107.15L116.36 107.83L116.51 108.53L116.67 109.24L116.82 109.97L116.97 110.72L117.12 111.48L117.26 112.26L117.40 113.06L117.53 113.87L117.65 114.70L117.76 115.55L117.86 116.41L117.96 117.29L118.04 118.19L118.10 119.10L118.16 120.03L118.20 120.97L118.22 121.93L118.23 122.91L118.21 123.90" fill="none" stroke="url(#kg)" stroke-width="9" stroke-linecap="round" stroke-linejoin="round"/><path d="M101.39 161.15L100.37 162.05L99.32 162.92L98.25 163.77L97.14 164.59L96.01 165.39L94.86 166.15L93.68 166.89L92.47 167.59L91.25 168.27L90.00 168.91L88.72 169.51L87.43 170.08L86.12 170.62L84.79 171.12L83.45 171.58L82.09 172.00L80.71 172.39L79.32 172.73L77.92 173.03L76.51 173.30L75.09 173.52L73.66 173.70L72.22 173.84L70.78 173.94L69.33 173.99L67.88 174.00L66.43 173.97L64.98 173.89L63.54 173.77L62.09 173.61L60.65 173.40L59.21 173.15L57.79 172.85L56.37 172.51L54.96 172.13L53.56 171.71L52.18 171.24L50.81 170.73L49.45 170.18L48.12 169.59L46.80 168.96L45.50 168.28L44.22 167.57L42.97 166.82L41.74 166.03L40.53 165.21L39.35 164.35L38.19 163.45L37.07 162.52L35.97 161.55L34.91 160.55L33.87 159.52L32.87 158.46L31.90 157.38L30.96 156.26L30.06 155.12L29.20 153.95L28.37 152.75L27.58 151.53L26.83 150.30L26.11 149.04L25.43 147.76L24.79 146.46L24.20 145.15L23.64 143.82L23.12 142.48L22.64 141.12L22.21 139.75L21.81 138.38L21.46 137.00L21.14 135.60L20.87 134.21L20.64 132.81L20.44 131.41L20.29 130.00L20.18 128.60L20.11 127.20L20.08 125.80L20.09 124.40L20.13 123.01L20.22 121.63L20.34 120.25L20.50 118.88L20.70 117.53L20.93 116.18L21.20 114.85L21.50 113.53L21.83 112.23L22.20 110.94L22.60 109.66L23.03 108.41L23.49 107.17L23.98 105.96L24.50 104.76L25.05 103.58L25.62 102.43L26.22 101.30L26.84 100.19L27.48 99.10L28.14 98.04L28.83 97.00L29.53 95.99L30.26 95.00L31.00 94.04L31.75 93.10L32.52 92.19L33.30 91.31L34.10 90.45L34.91 89.62L35.72 88.81L36.55 88.03L37.38 87.28L38.22 86.55L39.07 85.85L39.92 85.18L40.77 84.53L41.63 83.91L42.48 83.31L43.34 82.73L44.20 82.18L45.05 81.66L45.90 81.15L46.75 80.67L47.59 80.21L48.43 79.77L49.26 79.35L50.09 78.96L50.90 78.58L51.71 78.22L52.51 77.87L53.30 77.55L54.08 77.24L54.85 76.94L55.60 76.66L56.35 76.40L57.08 76.14L57.80 75.90L58.51 75.67L59.21 75.45L59.89 75.23L60.56 75.03L61.22 74.83L61.86 74.64L62.49 74.45L63.10 74.27L63.70 74.09L64.29 73.92L64.87 73.74L65.43 73.57L65.98 73.40L66.52 73.23L67.04 73.05L67.56 72.87L68.06 72.69L68.55 72.51L69.03 72.32L69.50 72.12L69.96 71.92L70.42 71.72L70.86 71.50L71.30 71.28L71.73 71.05L72.16 70.81L72.58 70.56L72.99 70.30L73.40 70.03L73.81 69.76L74.22 69.47L74.62 69.17L75.02 68.86L75.43 68.53L75.84 68.20L76.24 67.86L76.65 67.50L77.07 67.13L77.49 66.76L77.91 66.37L78.34 65.96L78.78 65.55L79.23 65.13L79.68 64.70L80.15 64.26L80.62 63.81L81.11 63.35L81.61 62.88L82.12 62.40L82.64 61.91L83.18 61.42L83.74 60.93L84.31 60.42L84.90 59.91L85.50 59.40L86.12 58.89L86.76 58.37L87.42 57.85L88.10 57.33L88.79 56.81L89.51 56.29L90.25 55.77L91.00 55.25L91.78 54.74L92.58 54.24L93.40 53.74L94.24 53.24L95.10 52.76" fill="none" stroke="url(#kg)" stroke-width="9" stroke-linecap="round" stroke-linejoin="round"/><path d="M133.18 47.94L134.48 48.30L135.77 48.70L137.06 49.13L138.34 49.60L139.62 50.11L140.88 50.66L142.13 51.24L143.37 51.86L144.60 52.51L145.81 53.20L147.01 53.93L148.19 54.69L149.35 55.49L150.49 56.32L151.61 57.19L152.71 58.09L153.78 59.03L154.82 59.99L155.85 60.99L156.84 62.02L157.80 63.09L158.74 64.18L159.64 65.30L160.51 66.44L161.35 67.62L162.16 68.82L162.92 70.05L163.66 71.30L164.35 72.57L165.01 73.86L165.63 75.18L166.21 76.51L166.75 77.86L167.25 79.23L167.71 80.61L168.13 82.01L168.50 83.42L168.83 84.84L169.12 86.28L169.36 87.72L169.56 89.17L169.72 90.62L169.83 92.08L169.90 93.54L169.92 95.00" fill="none" stroke="url(#kg)" stroke-width="9" stroke-linecap="round" stroke-linejoin="round"/></g></g>
<text x="370" y="118" font-family="'JetBrains Mono','SF Mono',ui-monospace,monospace" font-size="19" letter-spacing="6" fill="#2D4BFF">L E N S - 6 4 S  ·  v0.1.5</text>
<text x="368" y="205" font-family="'Space Grotesk','Segoe UI',system-ui,-apple-system,sans-serif" font-size="86" font-weight="700" letter-spacing="-3"><tspan fill="#2D4BFF">KNOT</tspan><tspan fill="#8A8F9C">store</tspan></text>
<text x="370" y="252" font-family="'Space Grotesk','Segoe UI',system-ui,-apple-system,sans-serif" font-size="24" font-weight="500" fill="#8A8F9C">Knot-Addressed Structural Hashing &amp; Tiny-Pointer Storage</text>
<rect x="370" y="300" width="138" height="40" rx="6" fill="#2D4BFF"/><text x="439.0" y="326" text-anchor="middle" font-family="'JetBrains Mono','SF Mono',ui-monospace,monospace" font-size="17" fill="#ffffff">1-byte ptr</text><rect x="520" y="300" width="88" height="40" rx="6" fill="none" stroke="#2D4BFF" stroke-width="1.5"/><text x="564.0" y="326" text-anchor="middle" font-family="'JetBrains Mono','SF Mono',ui-monospace,monospace" font-size="17" fill="#2D4BFF">186×</text><rect x="620" y="300" width="168" height="40" rx="6" fill="none" stroke="#8A8F9C" stroke-width="1.5"/><text x="704.0" y="326" text-anchor="middle" font-family="'JetBrains Mono','SF Mono',ui-monospace,monospace" font-size="17" fill="#8A8F9C">9.3× locality</text><rect x="800" y="300" width="148" height="40" rx="6" fill="none" stroke="#8A8F9C" stroke-width="1.5"/><text x="874.0" y="326" text-anchor="middle" font-family="'JetBrains Mono','SF Mono',ui-monospace,monospace" font-size="17" fill="#8A8F9C">36 tests ✓</text>
</svg>