<svg xmlns="http://www.w3.org/2000/svg" viewBox="0 0 720 260" width="720" height="260" role="img" aria-label="KNOTstore — object storage">
<defs><linearGradient id="kg" x1="0" y1="0" x2="1" y2="1"><stop offset="0" stop-color="#2D4BFF"/><stop offset="1" stop-color="#6FA0FF"/></linearGradient></defs>
<g opacity="0.92"><polygon points="120.0,38.0 199.7,84.0 199.7,176.0 120.0,222.0 40.3,176.0 40.3,84.0" fill="none" stroke="#4F6BFF" stroke-width="7" stroke-linejoin="round"/><path d="M120 130 L120.0 38.0" stroke="#4F6BFF" stroke-width="7" fill="none"/><path d="M120 130 L199.7 176.0" stroke="#4F6BFF" stroke-width="7" fill="none"/><path d="M120 130 L40.3 176.0" stroke="#4F6BFF" stroke-width="7" fill="none"/></g>
<g transform="translate(55,65)"><path d="M115.26 65.00L115.25 65.98L115.20 66.96L115.13 67.94L115.02 68.91L114.89 69.89L114.73 70.85L114.53 71.81L114.31 72.77L114.06 73.71L113.78 74.65L113.47 75.58L113.14 76.50L112.78 77.40L112.39 78.30L111.97 79.18L111.53 80.05L111.06 80.90L110.57 81.74L110.05 82.56L109.51 83.37L108.95 84.16L108.37 84.93L107.76 85.68L107.13 86.41L106.49 87.12L105.82 87.81L105.14 88.48L104.43 89.13L103.71 89.76L102.98 90.37L102.23 90.95L101.46 91.51L100.68 92.04L99.89 92.55L99.09 93.04L98.28 93.50L97.45 93.94L96.62 94.36L95.78 94.75L94.93 95.11L94.08 95.46L93.22 95.77L92.36 96.06L91.49 96.33L90.62 96.57L89.74 96.79L88.87 96.99L88.00 97.16L87.12 97.30L86.25 97.43L85.38 97.53L84.52 97.60L83.66 97.66L82.80 97.69L81.94 97.71L81.10 97.70L80.26 97.67L79.42 97.62L78.60 97.55L77.78 97.46L76.98 97.35L76.18 97.23L75.39 97.08L74.62 96.93L73.85 96.75L73.10 96.56L72.35 96.36L71.62 96.14L70.91 95.91L70.20 95.66L69.51 95.41L68.84 95.14L68.17 94.86L67.52 94.57L66.89 94.28L66.27 93.97L65.66 93.66L65.07 93.34L64.49 93.01L63.93 92.68L63.38 92.35L62.84 92.01L62.32 91.67L61.81 91.32L61.32 90.97L60.84 90.62L60.37 90.27L59.91 89.93L59.47 89.58L59.04 89.23L58.63 88.88L58.22 88.54L57.83 88.20L57.45 87.86L57.07 87.53L56.71 87.20L56.36 86.87L56.02 86.55L55.68 86.24L55.35 85.93L55.03 85.62L54.72 85.33L54.42 85.04L54.12 84.76L53.82 84.48L53.54 84.21L53.25 83.95L52.97 83.69L52.69 83.45L52.42 83.21L52.14 82.98L51.87 82.76L51.60 82.54L51.33 82.33L51.06 82.13L50.78 81.94L50.51 81.75L50.23 81.57L49.96 81.40L49.67 81.23L49.39 81.07L49.10 80.91L48.81 80.77L48.51 80.62L48.20 80.48L47.89 80.35L47.58 80.22L47.25 80.09L46.92 79.97L46.59 79.84L46.24 79.73L45.89 79.61L45.53 79.49L45.16 79.38L44.78 79.26L44.40 79.14L44.00 79.03L43.60 78.91L43.19 78.78L42.77 78.66L42.33 78.53L41.89 78.40L41.45 78.26L40.99 78.12L40.52 77.97L40.05 77.81L39.56 77.65L39.07 77.48L38.57 77.30L38.06 77.11L37.55 76.92L37.02 76.71L36.49 76.49L35.96 76.26L35.41 76.02L34.87 75.76L34.31 75.50L33.76 75.22L33.19 74.92L32.63 74.61L32.06 74.29L31.49 73.95" fill="none" stroke="url(#kg)" stroke-width="9.5" stroke-linecap="round" stroke-linejoin="round"/><path d="M15.49 51.68L15.31 50.79L15.15 49.89L15.02 48.98L14.91 48.06L14.83 47.14L14.77 46.21L14.74 45.28L14.74 44.34L14.76 43.40L14.81 42.46L14.88 41.52L14.98 40.58L15.11 39.63L15.27 38.70L15.45 37.76L15.66 36.83L15.90 35.90L16.16 34.97L16.46 34.06L16.78 33.15L17.12 32.25L17.50 31.36L17.90 30.48L18.33 29.61L18.78 28.75L19.26 27.90L19.77 27.07L20.30 26.26L20.86 25.45L21.44 24.67L22.04 23.90L22.67 23.15L23.32 22.42L23.99 21.71L24.68 21.02L25.40 20.35L26.13 19.70L26.89 19.08L27.66 18.48L28.46 17.90L29.27 17.34L30.09 16.82L30.93 16.31L31.79 15.83L32.66 15.38L33.55 14.96L34.44 14.56L35.35 14.19L36.27 13.85L37.20 13.54L38.14 13.25L39.08 13.00L40.03 12.77L40.99 12.57L41.95 12.40L42.92 12.26L43.89 12.15L44.86 12.07L45.84 12.02L46.81 12.00L47.78 12.01L48.75 12.04L49.72 12.11L50.68 12.20L51.64 12.32L52.59 12.47L53.54 12.65L54.48 12.85L55.41 13.08L56.34 13.34L57.25 13.63L58.15 13.93L59.04 14.27L59.92 14.63L60.79 15.01L61.64 15.42L62.48 15.85L63.30 16.30L64.11 16.77L64.91 17.26L65.68 17.78L66.44 18.31L67.18 18.86L67.90 19.43L68.61 20.02L69.29 20.62L69.96 21.24L70.60 21.87L71.23 22.52L71.83 23.18L72.42 23.85L72.98 24.53L73.52 25.22L74.04 25.93L74.54 26.64L75.02 27.36L75.48 28.08L75.92 28.81L76.33 29.55L76.73 30.30L77.10 31.04L77.45 31.79L77.78 32.54L78.09 33.29L78.39 34.05L78.66 34.80L78.91 35.55L79.14 36.30L79.35 37.05L79.54 37.79L79.72 38.54L79.88 39.27L80.02 40.00L80.14 40.73L80.25 41.45L80.34 42.16L80.41 42.87L80.48 43.57L80.52 44.26L80.55 44.94L80.57 45.61L80.58 46.28L80.58 46.93L80.56 47.58L80.54 48.21L80.50 48.83L80.45 49.44L80.40 50.05L80.34 50.64L80.27 51.22L80.19 51.78L80.11 52.34L80.03 52.89L79.94 53.42L79.84 53.94L79.74 54.45L79.64 54.95L79.54 55.44L79.43 55.92L79.33 56.39L79.22 56.85L79.12 57.29L79.01 57.73L78.91 58.16L78.81 58.58L78.71 58.99L78.62 59.39L78.52 59.78L78.43 60.17L78.35 60.54L78.27 60.91L78.20 61.28L78.13 61.63L78.06 61.99L78.01 62.33L77.96 62.68L77.91 63.02L77.87 63.35L77.84 63.69L77.82 64.02L77.80 64.35L77.79 64.67L77.78 65.00L77.79 65.33L77.80 65.65L77.82 65.98L77.84 66.31L77.87 66.65L77.91 66.98L77.96 67.32L78.01 67.67L78.06 68.01L78.13 68.37L78.20 68.72L78.27 69.09L78.35 69.46L78.43 69.83L78.52 70.22L78.62 70.61L78.71 71.01L78.81 71.42L78.91 71.84L79.01 72.27L79.12 72.71L79.22 73.15L79.33 73.61L79.43 74.08L79.54 74.56L79.64 75.05L79.74 75.55L79.84 76.06L79.94 76.58L80.03 77.11L80.11 77.66L80.19 78.22L80.27 78.78L80.34 79.36L80.40 79.95L80.45 80.56L80.50 81.17L80.54 81.79L80.56 82.42L80.58 83.07L80.58 83.72L80.57 84.39" fill="none" stroke="url(#kg)" stroke-width="9.5" stroke-linecap="round" stroke-linejoin="round"/><path d="M69.29 109.38L68.61 109.98L67.90 110.57L67.18 111.14L66.44 111.69L65.68 112.22L64.91 112.74L64.11 113.23L63.30 113.70L62.48 114.15L61.64 114.58L60.79 114.99L59.92 115.37L59.04 115.73L58.15 116.07L57.25 116.37L56.34 116.66L55.41 116.92L54.48 117.15L53.54 117.35L52.59 117.53L51.64 117.68L50.68 117.80L49.72 117.89L48.75 117.96L47.78 117.99L46.81 118.00L45.84 117.98L44.86 117.93L43.89 117.85L42.92 117.74L41.95 117.60L40.99 117.43L40.03 117.23L39.08 117.00L38.14 116.75L37.20 116.46L36.27 116.15L35.35 115.81L34.44 115.44L33.55 115.04L32.66 114.62L31.79 114.17L30.93 113.69L30.09 113.18L29.27 112.66L28.46 112.10L27.66 111.52L26.89 110.92L26.13 110.30L25.40 109.65L24.68 108.98L23.99 108.29L23.32 107.58L22.67 106.85L22.04 106.10L21.44 105.33L20.86 104.55L20.30 103.74L19.77 102.93L19.26 102.10L18.78 101.25L18.33 100.39L17.90 99.52L17.50 98.64L17.12 97.75L16.78 96.85L16.46 95.94L16.16 95.03L15.90 94.10L15.66 93.17L15.45 92.24L15.27 91.30L15.11 90.37L14.98 89.42L14.88 88.48L14.81 87.54L14.76 86.60L14.74 85.66L14.74 84.72L14.77 83.79L14.83 82.86L14.91 81.94L15.02 81.02L15.15 80.11L15.31 79.21L15.49 78.32L15.69 77.43L15.91 76.56L16.16 75.69L16.43 74.84L16.72 74.00L17.03 73.17L17.36 72.35L17.70 71.55L18.07 70.76L18.45 69.98L18.85 69.22L19.27 68.48L19.70 67.75L20.15 67.04L20.61 66.34L21.08 65.66L21.56 65.00L22.06 64.35L22.57 63.73L23.08 63.12L23.61 62.52L24.14 61.95L24.68 61.39L25.23 60.85L25.79 60.33L26.35 59.82L26.91 59.33L27.48 58.86L28.05 58.41L28.62 57.98L29.19 57.56L29.77 57.16L30.34 56.77L30.92 56.40L31.49 56.05L32.06 55.71L32.63 55.39L33.19 55.08L33.76 54.78L34.31 54.50L34.87 54.24L35.41 53.98L35.96 53.74L36.49 53.51L37.02 53.29L37.55 53.08L38.06 52.89L38.57 52.70L39.07 52.52L39.56 52.35L40.05 52.19L40.52 52.03L40.99 51.88L41.45 51.74L41.89 51.60L42.33 51.47L42.77 51.34L43.19 51.22L43.60 51.09L44.00 50.97L44.40 50.86L44.78 50.74L45.16 50.62L45.53 50.51L45.89 50.39L46.24 50.27L46.59 50.16L46.92 50.03L47.25 49.91L47.58 49.78L47.89 49.65L48.20 49.52L48.51 49.38L48.81 49.23L49.10 49.09L49.39 48.93L49.67 48.77L49.96 48.60L50.23 48.43L50.51 48.25L50.78 48.06L51.06 47.87L51.33 47.67L51.60 47.46L51.87 47.24L52.14 47.02L52.42 46.79L52.69 46.55L52.97 46.31L53.25 46.05L53.54 45.79L53.82 45.52L54.12 45.24L54.42 44.96L54.72 44.67L55.03 44.38L55.35 44.07L55.68 43.76L56.02 43.45L56.36 43.13L56.71 42.80L57.07 42.47L57.45 42.14L57.83 41.80L58.22 41.46L58.63 41.12L59.04 40.77L59.47 40.42L59.91 40.07L60.37 39.73L60.84 39.38L61.32 39.03L61.81 38.68L62.32 38.33L62.84 37.99L63.38 37.65L63.93 37.32L64.49 36.99L65.07 36.66" fill="none" stroke="url(#kg)" stroke-width="9.5" stroke-linecap="round" stroke-linejoin="round"/><path d="M90.62 33.43L91.49 33.67L92.36 33.94L93.22 34.23L94.08 34.54L94.93 34.89L95.78 35.25L96.62 35.64L97.45 36.06L98.28 36.50L99.09 36.96L99.89 37.45L100.68 37.96L101.46 38.49L102.23 39.05L102.98 39.63L103.71 40.24L104.43 40.87L105.14 41.52L105.82 42.19L106.49 42.88L107.13 43.59L107.76 44.32L108.37 45.07L108.95 45.84L109.51 46.63L110.05 47.44L110.57 48.26L111.06 49.10L111.53 49.95L111.97 50.82L112.39 51.70L112.78 52.60L113.14 53.50L113.47 54.42L113.78 55.35L114.06 56.29L114.31 57.23L114.53 58.19L114.73 59.15L114.89 60.11L115.02 61.09L115.13 62.06L115.20 63.04L115.25 64.02L115.26 65.00" fill="none" stroke="url(#kg)" stroke-width="9.5" stroke-linecap="round" stroke-linejoin="round"/></g>
<text x="270" y="128" font-family="'Space Grotesk','Segoe UI',system-ui,-apple-system,sans-serif" font-size="64" font-weight="700" letter-spacing="-2"><tspan fill="#2D4BFF">KNOT</tspan><tspan fill="#8A8F9C">store</tspan></text>
<g transform="translate(272,150)" stroke="#8A8F9C" stroke-width="2.4" fill="none" stroke-linejoin="round"><polygon points="12,2 23,8 23,18 12,24 1,18 1,8"/><path d="M12,2 V13 M12,13 L23,8 M12,13 L1,8"/></g>
<text x="306" y="170" font-family="'JetBrains Mono','SF Mono',ui-monospace,monospace" font-size="18" letter-spacing="5" fill="#8A8F9C">OBJECT  STORAGE</text>
</svg>