<svg xmlns="http://www.w3.org/2000/svg" viewBox="0 0 240 240" width="240" height="240" role="img" aria-label="KNOTstore mark — trefoil in a storage cube">
<defs><linearGradient id="kg" x1="0" y1="0" x2="1" y2="1"><stop offset="0" stop-color="#2D4BFF"/><stop offset="1" stop-color="#6FA0FF"/></linearGradient></defs>
<g opacity="0.92"><polygon points="120.0,36.0 194.5,79.0 194.5,165.0 120.0,208.0 45.5,165.0 45.5,79.0" fill="none" stroke="#4F6BFF" stroke-width="6.5" stroke-linejoin="round"/><path d="M120 122 L120.0 36.0" stroke="#4F6BFF" stroke-width="6.5" fill="none"/><path d="M120 122 L194.5 165.0" stroke="#4F6BFF" stroke-width="6.5" fill="none"/><path d="M120 122 L45.5 165.0" stroke="#4F6BFF" stroke-width="6.5" fill="none"/></g>
<g transform="translate(58,60)"><path d="M109.42 62.00L109.40 62.93L109.36 63.85L109.29 64.77L109.19 65.69L109.07 66.61L108.91 67.52L108.73 68.43L108.52 69.33L108.28 70.22L108.02 71.11L107.73 71.98L107.41 72.85L107.07 73.70L106.70 74.55L106.31 75.38L105.89 76.20L105.45 77.00L104.99 77.79L104.50 78.57L103.99 79.33L103.46 80.07L102.91 80.80L102.34 81.51L101.75 82.20L101.14 82.87L100.51 83.52L99.86 84.16L99.20 84.77L98.52 85.36L97.83 85.93L97.12 86.48L96.40 87.01L95.66 87.51L94.92 87.99L94.16 88.45L93.39 88.89L92.62 89.31L91.83 89.70L91.04 90.06L90.24 90.41L89.43 90.73L88.62 91.03L87.81 91.31L86.99 91.56L86.17 91.79L85.34 91.99L84.52 92.18L83.70 92.34L82.87 92.47L82.05 92.59L81.23 92.69L80.41 92.76L79.60 92.81L78.79 92.84L77.99 92.85L77.19 92.85L76.39 92.82L75.61 92.77L74.83 92.70L74.06 92.62L73.30 92.52L72.55 92.40L71.80 92.27L71.07 92.12L70.35 91.95L69.64 91.77L68.94 91.58L68.25 91.38L67.57 91.16L66.91 90.93L66.26 90.68L65.62 90.43L64.99 90.17L64.38 89.90L63.78 89.62L63.20 89.33L62.62 89.04L62.06 88.73L61.52 88.43L60.99 88.12L60.47 87.80L59.96 87.48L59.47 87.16L58.99 86.83L58.52 86.50L58.07 86.17L57.63 85.84L57.20 85.51L56.79 85.19L56.38 84.86L55.99 84.53L55.61 84.21L55.23 83.88L54.87 83.57L54.52 83.25L54.18 82.94L53.85 82.63L53.52 82.33L53.21 82.03L52.90 81.74L52.60 81.46L52.30 81.18L52.02 80.90L51.73 80.64L51.46 80.38L51.18 80.12L50.92 79.88L50.65 79.64L50.39 79.40L50.13 79.18L49.87 78.96L49.61 78.75L49.36 78.55L49.10 78.35L48.85 78.16L48.59 77.98L48.33 77.80L48.07 77.63L47.81 77.47L47.54 77.31L47.27 77.16L47.00 77.01L46.72 76.87L46.44 76.74L46.15 76.61L45.86 76.48L45.56 76.36L45.26 76.24L44.95 76.12L44.63 76.00L44.30 75.89L43.97 75.78L43.63 75.67L43.28 75.56L42.93 75.45L42.56 75.34L42.19 75.23L41.81 75.12L41.42 75.00L41.02 74.89L40.62 74.77L40.20 74.64L39.78 74.51L39.35 74.38L38.91 74.24L38.46 74.09L38.00 73.94L37.54 73.77L37.07 73.61L36.59 73.43L36.10 73.24L35.61 73.05L35.11 72.84L34.60 72.62L34.09 72.39L33.57 72.15L33.05 71.90L32.53 71.64L32.00 71.36L31.46 71.07L30.93 70.77L30.39 70.45" fill="none" stroke="url(#kg)" stroke-width="9" stroke-linecap="round" stroke-linejoin="round"/><path d="M15.29 49.44L15.12 48.59L14.97 47.74L14.85 46.88L14.75 46.02L14.67 45.15L14.62 44.27L14.59 43.39L14.58 42.51L14.60 41.62L14.65 40.74L14.72 39.85L14.81 38.96L14.93 38.07L15.08 37.18L15.25 36.30L15.45 35.42L15.68 34.55L15.93 33.67L16.20 32.81L16.51 31.95L16.83 31.10L17.19 30.26L17.57 29.43L17.97 28.61L18.40 27.80L18.85 27.00L19.33 26.22L19.83 25.45L20.35 24.69L20.90 23.95L21.47 23.23L22.06 22.52L22.68 21.83L23.31 21.16L23.97 20.51L24.64 19.88L25.33 19.27L26.05 18.68L26.78 18.11L27.52 17.56L28.29 17.04L29.07 16.54L29.86 16.07L30.67 15.62L31.49 15.19L32.33 14.79L33.17 14.42L34.03 14.07L34.90 13.75L35.77 13.45L36.66 13.18L37.55 12.94L38.45 12.73L39.35 12.54L40.26 12.38L41.17 12.25L42.09 12.15L43.00 12.07L43.92 12.02L44.84 12.00L45.75 12.01L46.67 12.04L47.58 12.10L48.49 12.19L49.40 12.30L50.30 12.44L51.19 12.61L52.08 12.80L52.96 13.02L53.83 13.27L54.69 13.53L55.54 13.83L56.38 14.14L57.21 14.48L58.03 14.84L58.83 15.22L59.62 15.63L60.40 16.05L61.16 16.50L61.91 16.97L62.64 17.45L63.36 17.95L64.06 18.47L64.74 19.01L65.40 19.56L66.05 20.13L66.67 20.71L67.28 21.31L67.87 21.92L68.44 22.54L69.00 23.18L69.53 23.82L70.04 24.47L70.53 25.14L71.00 25.81L71.46 26.49L71.89 27.17L72.30 27.86L72.69 28.56L73.06 29.26L73.42 29.96L73.75 30.67L74.06 31.38L74.35 32.09L74.63 32.80L74.88 33.51L75.12 34.22L75.34 34.93L75.54 35.63L75.72 36.33L75.89 37.03L76.04 37.73L76.17 38.42L76.28 39.10L76.38 39.78L76.47 40.46L76.54 41.12L76.60 41.78L76.64 42.43L76.67 43.08L76.69 43.71L76.70 44.34L76.70 44.95L76.68 45.56L76.66 46.16L76.62 46.75L76.58 47.32L76.53 47.89L76.47 48.45L76.41 49.00L76.33 49.53L76.26 50.06L76.18 50.57L76.09 51.08L76.00 51.57L75.91 52.05L75.81 52.52L75.71 52.98L75.62 53.44L75.52 53.88L75.42 54.31L75.32 54.73L75.22 55.14L75.12 55.55L75.03 55.94L74.93 56.33L74.84 56.71L74.76 57.08L74.67 57.44L74.60 57.79L74.52 58.14L74.45 58.49L74.38 58.83L74.32 59.16L74.27 59.49L74.22 59.81L74.18 60.13L74.14 60.45L74.11 60.76L74.09 61.07L74.07 61.38L74.06 61.69L74.06 62.00L74.06 62.31L74.07 62.62L74.09 62.93L74.11 63.24L74.14 63.55L74.18 63.87L74.22 64.19L74.27 64.51L74.32 64.84L74.38 65.17L74.45 65.51L74.52 65.86L74.60 66.21L74.67 66.56L74.76 66.92L74.84 67.29L74.93 67.67L75.03 68.06L75.12 68.45L75.22 68.86L75.32 69.27L75.42 69.69L75.52 70.12L75.62 70.56L75.71 71.02L75.81 71.48L75.91 71.95L76.00 72.43L76.09 72.92L76.18 73.43L76.26 73.94L76.33 74.47L76.41 75.00L76.47 75.55L76.53 76.11L76.58 76.68L76.62 77.25L76.66 77.84L76.68 78.44L76.70 79.05L76.70 79.66L76.69 80.29" fill="none" stroke="url(#kg)" stroke-width="9" stroke-linecap="round" stroke-linejoin="round"/><path d="M66.05 103.87L65.40 104.44L64.74 104.99L64.06 105.53L63.36 106.05L62.64 106.55L61.91 107.03L61.16 107.50L60.40 107.95L59.62 108.37L58.83 108.78L58.03 109.16L57.21 109.52L56.38 109.86L55.54 110.17L54.69 110.47L53.83 110.73L52.96 110.98L52.08 111.20L51.19 111.39L50.30 111.56L49.40 111.70L48.49 111.81L47.58 111.90L46.67 111.96L45.75 111.99L44.84 112.00L43.92 111.98L43.00 111.93L42.09 111.85L41.17 111.75L40.26 111.62L39.35 111.46L38.45 111.27L37.55 111.06L36.66 110.82L35.77 110.55L34.90 110.25L34.03 109.93L33.17 109.58L32.33 109.21L31.49 108.81L30.67 108.38L29.86 107.93L29.07 107.46L28.29 106.96L27.52 106.44L26.78 105.89L26.05 105.32L25.33 104.73L24.64 104.12L23.97 103.49L23.31 102.84L22.68 102.17L22.06 101.48L21.47 100.77L20.90 100.05L20.35 99.31L19.83 98.55L19.33 97.78L18.85 97.00L18.40 96.20L17.97 95.39L17.57 94.57L17.19 93.74L16.83 92.90L16.51 92.05L16.20 91.19L15.93 90.33L15.68 89.45L15.45 88.58L15.25 87.70L15.08 86.82L14.93 85.93L14.81 85.04L14.72 84.15L14.65 83.26L14.60 82.38L14.58 81.49L14.59 80.61L14.62 79.73L14.67 78.85L14.75 77.98L14.85 77.12L14.97 76.26L15.12 75.41L15.29 74.56L15.48 73.73L15.69 72.90L15.93 72.09L16.18 71.28L16.45 70.49L16.74 69.70L17.05 68.93L17.38 68.18L17.73 67.43L18.09 66.70L18.47 65.99L18.86 65.28L19.27 64.60L19.69 63.92L20.12 63.27L20.57 62.63L21.02 62.00L21.49 61.39L21.97 60.80L22.46 60.22L22.95 59.66L23.46 59.12L23.97 58.59L24.48 58.08L25.01 57.59L25.53 57.11L26.07 56.65L26.60 56.21L27.14 55.78L27.68 55.37L28.22 54.98L28.76 54.60L29.30 54.24L29.85 53.89L30.39 53.55L30.93 53.23L31.46 52.93L32.00 52.64L32.53 52.36L33.05 52.10L33.57 51.85L34.09 51.61L34.60 51.38L35.11 51.16L35.61 50.95L36.10 50.76L36.59 50.57L37.07 50.39L37.54 50.23L38.00 50.06L38.46 49.91L38.91 49.76L39.35 49.62L39.78 49.49L40.20 49.36L40.62 49.23L41.02 49.11L41.42 49.00L41.81 48.88L42.19 48.77L42.56 48.66L42.93 48.55L43.28 48.44L43.63 48.33L43.97 48.22L44.30 48.11L44.63 48.00L44.95 47.88L45.26 47.76L45.56 47.64L45.86 47.52L46.15 47.39L46.44 47.26L46.72 47.13L47.00 46.99L47.27 46.84L47.54 46.69L47.81 46.53L48.07 46.37L48.33 46.20L48.59 46.02L48.85 45.84L49.10 45.65L49.36 45.45L49.61 45.25L49.87 45.04L50.13 44.82L50.39 44.60L50.65 44.36L50.92 44.12L51.18 43.88L51.46 43.62L51.73 43.36L52.02 43.10L52.30 42.82L52.60 42.54L52.90 42.26L53.21 41.97L53.52 41.67L53.85 41.37L54.18 41.06L54.52 40.75L54.87 40.43L55.23 40.12L55.61 39.79L55.99 39.47L56.38 39.14L56.79 38.81L57.20 38.49L57.63 38.16L58.07 37.83L58.52 37.50L58.99 37.17L59.47 36.84L59.96 36.52L60.47 36.20L60.99 35.88L61.52 35.57L62.06 35.27" fill="none" stroke="url(#kg)" stroke-width="9" stroke-linecap="round" stroke-linejoin="round"/><path d="M86.17 32.21L86.99 32.44L87.81 32.69L88.62 32.97L89.43 33.27L90.24 33.59L91.04 33.94L91.83 34.30L92.62 34.69L93.39 35.11L94.16 35.55L94.92 36.01L95.66 36.49L96.40 36.99L97.12 37.52L97.83 38.07L98.52 38.64L99.20 39.23L99.86 39.84L100.51 40.48L101.14 41.13L101.75 41.80L102.34 42.49L102.91 43.20L103.46 43.93L103.99 44.67L104.50 45.43L104.99 46.21L105.45 47.00L105.89 47.80L106.31 48.62L106.70 49.45L107.07 50.30L107.41 51.15L107.73 52.02L108.02 52.89L108.28 53.78L108.52 54.67L108.73 55.57L108.91 56.48L109.07 57.39L109.19 58.31L109.29 59.23L109.36 60.15L109.40 61.07L109.42 62.00" fill="none" stroke="url(#kg)" stroke-width="9" stroke-linecap="round" stroke-linejoin="round"/></g>
</svg>