<svg xmlns="http://www.w3.org/2000/svg" viewBox="0 0 1280 400" width="1280" height="400" role="img" aria-label="KNOTstore — Knot-Addressed Structural Hashing and Tiny-Pointer Storage">
<defs>
<linearGradient id="hg" x1="0" y1="0" x2="1" y2="1">
<stop offset="0" stop-color="#2440E6"/>
<stop offset="1" stop-color="#11131A"/>
</linearGradient>
</defs>
<rect width="1280" height="400" fill="#FAFAF7"/>
<circle cx="0" cy="0" r="1" fill="#2440E6" opacity="0.05"/><circle cx="0" cy="32" r="1" fill="#2440E6" opacity="0.05"/><circle cx="0" cy="64" r="1" fill="#2440E6" opacity="0.05"/><circle cx="0" cy="96" r="1" fill="#2440E6" opacity="0.05"/><circle cx="0" cy="128" r="1" fill="#2440E6" opacity="0.05"/><circle cx="0" cy="160" r="1" fill="#2440E6" opacity="0.05"/><circle cx="0" cy="192" r="1" fill="#2440E6" opacity="0.05"/><circle cx="0" cy="224" r="1" fill="#2440E6" opacity="0.05"/><circle cx="0" cy="256" r="1" fill="#2440E6" opacity="0.05"/><circle cx="0" cy="288" r="1" fill="#2440E6" opacity="0.05"/><circle cx="0" cy="320" r="1" fill="#2440E6" opacity="0.05"/><circle cx="0" cy="352" r="1" fill="#2440E6" opacity="0.05"/><circle cx="0" cy="384" r="1" fill="#2440E6" opacity="0.05"/><circle cx="32" cy="0" r="1" fill="#2440E6" opacity="0.05"/><circle cx="32" cy="32" r="1" fill="#2440E6" opacity="0.05"/><circle cx="32" cy="64" r="1" fill="#2440E6" opacity="0.05"/><circle cx="32" cy="96" r="1" fill="#2440E6" opacity="0.05"/><circle cx="32" cy="128" r="1" fill="#2440E6" opacity="0.05"/><circle cx="32" cy="160" r="1" fill="#2440E6" opacity="0.05"/><circle cx="32" cy="192" r="1" fill="#2440E6" opacity="0.05"/><circle cx="32" cy="224" r="1" fill="#2440E6" opacity="0.05"/><circle cx="32" cy="256" r="1" fill="#2440E6" opacity="0.05"/><circle cx="32" cy="288" r="1" fill="#2440E6" opacity="0.05"/><circle cx="32" cy="320" r="1" fill="#2440E6" opacity="0.05"/><circle cx="32" cy="352" r="1" fill="#2440E6" opacity="0.05"/><circle cx="32" cy="384" r="1" fill="#2440E6" opacity="0.05"/><circle cx="64" cy="0" r="1" fill="#2440E6" opacity="0.05"/><circle cx="64" cy="32" r="1" fill="#2440E6" opacity="0.05"/><circle cx="64" cy="64" r="1" fill="#2440E6" opacity="0.05"/><circle cx="64" cy="96" r="1" fill="#2440E6" opacity="0.05"/><circle cx="64" cy="128" r="1" fill="#2440E6" opacity="0.05"/><circle cx="64" cy="160" r="1" fill="#2440E6" opacity="0.05"/><circle cx="64" cy="192" r="1" fill="#2440E6" opacity="0.05"/><circle cx="64" cy="224" r="1" fill="#2440E6" opacity="0.05"/><circle cx="64" cy="256" r="1" fill="#2440E6" opacity="0.05"/><circle cx="64" cy="288" r="1" fill="#2440E6" opacity="0.05"/><circle cx="64" cy="320" r="1" fill="#2440E6" opacity="0.05"/><circle cx="64" cy="352" r="1" fill="#2440E6" opacity="0.05"/><circle cx="64" cy="384" r="1" fill="#2440E6" opacity="0.05"/><circle cx="96" cy="0" r="1" fill="#2440E6" opacity="0.05"/><circle cx="96" cy="32" r="1" fill="#2440E6" opacity="0.05"/><circle cx="96" cy="64" r="1" fill="#2440E6" opacity="0.05"/><circle cx="96" cy="96" r="1" fill="#2440E6" opacity="0.05"/><circle cx="96" cy="128" r="1" fill="#2440E6" opacity="0.05"/><circle cx="96" cy="160" r="1" fill="#2440E6" opacity="0.05"/><circle cx="96" cy="192" r="1" fill="#2440E6" opacity="0.05"/><circle cx="96" cy="224" r="1" fill="#2440E6" opacity="0.05"/><circle cx="96" cy="256" r="1" fill="#2440E6" opacity="0.05"/><circle cx="96" cy="288" r="1" fill="#2440E6" opacity="0.05"/><circle cx="96" cy="320" r="1" fill="#2440E6" opacity="0.05"/><circle cx="96" cy="352" r="1" fill="#2440E6" opacity="0.05"/><circle cx="96" cy="384" r="1" fill="#2440E6" opacity="0.05"/><circle cx="128" cy="0" r="1" fill="#2440E6" opacity="0.05"/><circle cx="128" cy="32" r="1" fill="#2440E6" opacity="0.05"/><circle cx="128" cy="64" r="1" fill="#2440E6" opacity="0.05"/><circle cx="128" cy="96" r="1" fill="#2440E6" opacity="0.05"/><circle cx="128" cy="128" r="1" fill="#2440E6" opacity="0.05"/><circle cx="128" cy="160" r="1" fill="#2440E6" opacity="0.05"/><circle cx="128" cy="192" r="1" fill="#2440E6" opacity="0.05"/><circle cx="128" cy="224" r="1" fill="#2440E6" opacity="0.05"/><circle cx="128" cy="256" r="1" fill="#2440E6" opacity="0.05"/><circle cx="128" cy="288" r="1" fill="#2440E6" opacity="0.05"/><circle cx="128" cy="320" r="1" fill="#2440E6" opacity="0.05"/><circle cx="128" cy="352" r="1" fill="#2440E6" opacity="0.05"/><circle cx="128" cy="384" r="1" fill="#2440E6" opacity="0.05"/><circle cx="160" cy="0" r="1" fill="#2440E6" opacity="0.05"/><circle cx="160" cy="32" r="1" fill="#2440E6" opacity="0.05"/><circle cx="160" cy="64" r="1" fill="#2440E6" opacity="0.05"/><circle cx="160" cy="96" r="1" fill="#2440E6" opacity="0.05"/><circle cx="160" cy="128" r="1" fill="#2440E6" opacity="0.05"/><circle cx="160" cy="160" r="1" fill="#2440E6" opacity="0.05"/><circle cx="160" cy="192" r="1" fill="#2440E6" opacity="0.05"/><circle cx="160" cy="224" r="1" fill="#2440E6" opacity="0.05"/><circle cx="160" cy="256" r="1" fill="#2440E6" opacity="0.05"/><circle cx="160" cy="288" r="1" fill="#2440E6" opacity="0.05"/><circle cx="160" cy="320" r="1" fill="#2440E6" opacity="0.05"/><circle cx="160" cy="352" r="1" fill="#2440E6" opacity="0.05"/><circle cx="160" cy="384" r="1" fill="#2440E6" opacity="0.05"/><circle cx="192" cy="0" r="1" fill="#2440E6" opacity="0.05"/><circle cx="192" cy="32" r="1" fill="#2440E6" opacity="0.05"/><circle cx="192" cy="64" r="1" fill="#2440E6" opacity="0.05"/><circle cx="192" cy="96" r="1" fill="#2440E6" opacity="0.05"/><circle cx="192" cy="128" r="1" fill="#2440E6" opacity="0.05"/><circle cx="192" cy="160" r="1" fill="#2440E6" opacity="0.05"/><circle cx="192" cy="192" r="1" fill="#2440E6" opacity="0.05"/><circle cx="192" cy="224" r="1" fill="#2440E6" opacity="0.05"/><circle cx="192" cy="256" r="1" fill="#2440E6" opacity="0.05"/><circle cx="192" cy="288" r="1" fill="#2440E6" opacity="0.05"/><circle cx="192" cy="320" r="1" fill="#2440E6" opacity="0.05"/><circle cx="192" cy="352" r="1" fill="#2440E6" opacity="0.05"/><circle cx="192" cy="384" r="1" fill="#2440E6" opacity="0.05"/><circle cx="224" cy="0" r="1" fill="#2440E6" opacity="0.05"/><circle cx="224" cy="32" r="1" fill="#2440E6" opacity="0.05"/><circle cx="224" cy="64" r="1" fill="#2440E6" opacity="0.05"/><circle cx="224" cy="96" r="1" fill="#2440E6" opacity="0.05"/><circle cx="224" cy="128" r="1" fill="#2440E6" opacity="0.05"/><circle cx="224" cy="160" r="1" fill="#2440E6" opacity="0.05"/><circle cx="224" cy="192" r="1" fill="#2440E6" opacity="0.05"/><circle cx="224" cy="224" r="1" fill="#2440E6" opacity="0.05"/><circle cx="224" cy="256" r="1" fill="#2440E6" opacity="0.05"/><circle cx="224" cy="288" r="1" fill="#2440E6" opacity="0.05"/><circle cx="224" cy="320" r="1" fill="#2440E6" opacity="0.05"/><circle cx="224" cy="352" r="1" fill="#2440E6" opacity="0.05"/><circle cx="224" cy="384" r="1" fill="#2440E6" opacity="0.05"/><circle cx="256" cy="0" r="1" fill="#2440E6" opacity="0.05"/><circle cx="256" cy="32" r="1" fill="#2440E6" opacity="0.05"/><circle cx="256" cy="64" r="1" fill="#2440E6" opacity="0.05"/><circle cx="256" cy="96" r="1" fill="#2440E6" opacity="0.05"/><circle cx="256" cy="128" r="1" fill="#2440E6" opacity="0.05"/><circle cx="256" cy="160" r="1" fill="#2440E6" opacity="0.05"/><circle cx="256" cy="192" r="1" fill="#2440E6" opacity="0.05"/><circle cx="256" cy="224" r="1" fill="#2440E6" opacity="0.05"/><circle cx="256" cy="256" r="1" fill="#2440E6" opacity="0.05"/><circle cx="256" cy="288" r="1" fill="#2440E6" opacity="0.05"/><circle cx="256" cy="320" r="1" fill="#2440E6" opacity="0.05"/><circle cx="256" cy="352" r="1" fill="#2440E6" opacity="0.05"/><circle cx="256" cy="384" r="1" fill="#2440E6" opacity="0.05"/><circle cx="288" cy="0" r="1" fill="#2440E6" opacity="0.05"/><circle cx="288" cy="32" r="1" fill="#2440E6" opacity="0.05"/><circle cx="288" cy="64" r="1" fill="#2440E6" opacity="0.05"/><circle cx="288" cy="96" r="1" fill="#2440E6" opacity="0.05"/><circle cx="288" cy="128" r="1" fill="#2440E6" opacity="0.05"/><circle cx="288" cy="160" r="1" fill="#2440E6" opacity="0.05"/><circle cx="288" cy="192" r="1" fill="#2440E6" opacity="0.05"/><circle cx="288" cy="224" r="1" fill="#2440E6" opacity="0.05"/><circle cx="288" cy="256" r="1" fill="#2440E6" opacity="0.05"/><circle cx="288" cy="288" r="1" fill="#2440E6" opacity="0.05"/><circle cx="288" cy="320" r="1" fill="#2440E6" opacity="0.05"/><circle cx="288" cy="352" r="1" fill="#2440E6" opacity="0.05"/><circle cx="288" cy="384" r="1" fill="#2440E6" opacity="0.05"/><circle cx="320" cy="0" r="1" fill="#2440E6" opacity="0.05"/><circle cx="320" cy="32" r="1" fill="#2440E6" opacity="0.05"/><circle cx="320" cy="64" r="1" fill="#2440E6" opacity="0.05"/><circle cx="320" cy="96" r="1" fill="#2440E6" opacity="0.05"/><circle cx="320" cy="128" r="1" fill="#2440E6" opacity="0.05"/><circle cx="320" cy="160" r="1" fill="#2440E6" opacity="0.05"/><circle cx="320" cy="192" r="1" fill="#2440E6" opacity="0.05"/><circle cx="320" cy="224" r="1" fill="#2440E6" opacity="0.05"/><circle cx="320" cy="256" r="1" fill="#2440E6" opacity="0.05"/><circle cx="320" cy="288" r="1" fill="#2440E6" opacity="0.05"/><circle cx="320" cy="320" r="1" fill="#2440E6" opacity="0.05"/><circle cx="320" cy="352" r="1" fill="#2440E6" opacity="0.05"/><circle cx="320" cy="384" r="1" fill="#2440E6" opacity="0.05"/><circle cx="352" cy="0" r="1" fill="#2440E6" opacity="0.05"/><circle cx="352" cy="32" r="1" fill="#2440E6" opacity="0.05"/><circle cx="352" cy="64" r="1" fill="#2440E6" opacity="0.05"/><circle cx="352" cy="96" r="1" fill="#2440E6" opacity="0.05"/><circle cx="352" cy="128" r="1" fill="#2440E6" opacity="0.05"/><circle cx="352" cy="160" r="1" fill="#2440E6" opacity="0.05"/><circle cx="352" cy="192" r="1" fill="#2440E6" opacity="0.05"/><circle cx="352" cy="224" r="1" fill="#2440E6" opacity="0.05"/><circle cx="352" cy="256" r="1" fill="#2440E6" opacity="0.05"/><circle cx="352" cy="288" r="1" fill="#2440E6" opacity="0.05"/><circle cx="352" cy="320" r="1" fill="#2440E6" opacity="0.05"/><circle cx="352" cy="352" r="1" fill="#2440E6" opacity="0.05"/><circle cx="352" cy="384" r="1" fill="#2440E6" opacity="0.05"/><circle cx="384" cy="0" r="1" fill="#2440E6" opacity="0.05"/><circle cx="384" cy="32" r="1" fill="#2440E6" opacity="0.05"/><circle cx="384" cy="64" r="1" fill="#2440E6" opacity="0.05"/><circle cx="384" cy="96" r="1" fill="#2440E6" opacity="0.05"/><circle cx="384" cy="128" r="1" fill="#2440E6" opacity="0.05"/><circle cx="384" cy="160" r="1" fill="#2440E6" opacity="0.05"/><circle cx="384" cy="192" r="1" fill="#2440E6" opacity="0.05"/><circle cx="384" cy="224" r="1" fill="#2440E6" opacity="0.05"/><circle cx="384" cy="256" r="1" fill="#2440E6" opacity="0.05"/><circle cx="384" cy="288" r="1" fill="#2440E6" opacity="0.05"/><circle cx="384" cy="320" r="1" fill="#2440E6" opacity="0.05"/><circle cx="384" cy="352" r="1" fill="#2440E6" opacity="0.05"/><circle cx="384" cy="384" r="1" fill="#2440E6" opacity="0.05"/><circle cx="416" cy="0" r="1" fill="#2440E6" opacity="0.05"/><circle cx="416" cy="32" r="1" fill="#2440E6" opacity="0.05"/><circle cx="416" cy="64" r="1" fill="#2440E6" opacity="0.05"/><circle cx="416" cy="96" r="1" fill="#2440E6" opacity="0.05"/><circle cx="416" cy="128" r="1" fill="#2440E6" opacity="0.05"/><circle cx="416" cy="160" r="1" fill="#2440E6" opacity="0.05"/><circle cx="416" cy="192" r="1" fill="#2440E6" opacity="0.05"/><circle cx="416" cy="224" r="1" fill="#2440E6" opacity="0.05"/><circle cx="416" cy="256" r="1" fill="#2440E6" opacity="0.05"/><circle cx="416" cy="288" r="1" fill="#2440E6" opacity="0.05"/><circle cx="416" cy="320" r="1" fill="#2440E6" opacity="0.05"/><circle cx="416" cy="352" r="1" fill="#2440E6" opacity="0.05"/><circle cx="416" cy="384" r="1" fill="#2440E6" opacity="0.05"/><circle cx="448" cy="0" r="1" fill="#2440E6" opacity="0.05"/><circle cx="448" cy="32" r="1" fill="#2440E6" opacity="0.05"/><circle cx="448" cy="64" r="1" fill="#2440E6" opacity="0.05"/><circle cx="448" cy="96" r="1" fill="#2440E6" opacity="0.05"/><circle cx="448" cy="128" r="1" fill="#2440E6" opacity="0.05"/><circle cx="448" cy="160" r="1" fill="#2440E6" opacity="0.05"/><circle cx="448" cy="192" r="1" fill="#2440E6" opacity="0.05"/><circle cx="448" cy="224" r="1" fill="#2440E6" opacity="0.05"/><circle cx="448" cy="256" r="1" fill="#2440E6" opacity="0.05"/><circle cx="448" cy="288" r="1" fill="#2440E6" opacity="0.05"/><circle cx="448" cy="320" r="1" fill="#2440E6" opacity="0.05"/><circle cx="448" cy="352" r="1" fill="#2440E6" opacity="0.05"/><circle cx="448" cy="384" r="1" fill="#2440E6" opacity="0.05"/><circle cx="480" cy="0" r="1" fill="#2440E6" opacity="0.05"/><circle cx="480" cy="32" r="1" fill="#2440E6" opacity="0.05"/><circle cx="480" cy="64" r="1" fill="#2440E6" opacity="0.05"/><circle cx="480" cy="96" r="1" fill="#2440E6" opacity="0.05"/><circle cx="480" cy="128" r="1" fill="#2440E6" opacity="0.05"/><circle cx="480" cy="160" r="1" fill="#2440E6" opacity="0.05"/><circle cx="480" cy="192" r="1" fill="#2440E6" opacity="0.05"/><circle cx="480" cy="224" r="1" fill="#2440E6" opacity="0.05"/><circle cx="480" cy="256" r="1" fill="#2440E6" opacity="0.05"/><circle cx="480" cy="288" r="1" fill="#2440E6" opacity="0.05"/><circle cx="480" cy="320" r="1" fill="#2440E6" opacity="0.05"/><circle cx="480" cy="352" r="1" fill="#2440E6" opacity="0.05"/><circle cx="480" cy="384" r="1" fill="#2440E6" opacity="0.05"/><circle cx="512" cy="0" r="1" fill="#2440E6" opacity="0.05"/><circle cx="512" cy="32" r="1" fill="#2440E6" opacity="0.05"/><circle cx="512" cy="64" r="1" fill="#2440E6" opacity="0.05"/><circle cx="512" cy="96" r="1" fill="#2440E6" opacity="0.05"/><circle cx="512" cy="128" r="1" fill="#2440E6" opacity="0.05"/><circle cx="512" cy="160" r="1" fill="#2440E6" opacity="0.05"/><circle cx="512" cy="192" r="1" fill="#2440E6" opacity="0.05"/><circle cx="512" cy="224" r="1" fill="#2440E6" opacity="0.05"/><circle cx="512" cy="256" r="1" fill="#2440E6" opacity="0.05"/><circle cx="512" cy="288" r="1" fill="#2440E6" opacity="0.05"/><circle cx="512" cy="320" r="1" fill="#2440E6" opacity="0.05"/><circle cx="512" cy="352" r="1" fill="#2440E6" opacity="0.05"/><circle cx="512" cy="384" r="1" fill="#2440E6" opacity="0.05"/><circle cx="544" cy="0" r="1" fill="#2440E6" opacity="0.05"/><circle cx="544" cy="32" r="1" fill="#2440E6" opacity="0.05"/><circle cx="544" cy="64" r="1" fill="#2440E6" opacity="0.05"/><circle cx="544" cy="96" r="1" fill="#2440E6" opacity="0.05"/><circle cx="544" cy="128" r="1" fill="#2440E6" opacity="0.05"/><circle cx="544" cy="160" r="1" fill="#2440E6" opacity="0.05"/><circle cx="544" cy="192" r="1" fill="#2440E6" opacity="0.05"/><circle cx="544" cy="224" r="1" fill="#2440E6" opacity="0.05"/><circle cx="544" cy="256" r="1" fill="#2440E6" opacity="0.05"/><circle cx="544" cy="288" r="1" fill="#2440E6" opacity="0.05"/><circle cx="544" cy="320" r="1" fill="#2440E6" opacity="0.05"/><circle cx="544" cy="352" r="1" fill="#2440E6" opacity="0.05"/><circle cx="544" cy="384" r="1" fill="#2440E6" opacity="0.05"/><circle cx="576" cy="0" r="1" fill="#2440E6" opacity="0.05"/><circle cx="576" cy="32" r="1" fill="#2440E6" opacity="0.05"/><circle cx="576" cy="64" r="1" fill="#2440E6" opacity="0.05"/><circle cx="576" cy="96" r="1" fill="#2440E6" opacity="0.05"/><circle cx="576" cy="128" r="1" fill="#2440E6" opacity="0.05"/><circle cx="576" cy="160" r="1" fill="#2440E6" opacity="0.05"/><circle cx="576" cy="192" r="1" fill="#2440E6" opacity="0.05"/><circle cx="576" cy="224" r="1" fill="#2440E6" opacity="0.05"/><circle cx="576" cy="256" r="1" fill="#2440E6" opacity="0.05"/><circle cx="576" cy="288" r="1" fill="#2440E6" opacity="0.05"/><circle cx="576" cy="320" r="1" fill="#2440E6" opacity="0.05"/><circle cx="576" cy="352" r="1" fill="#2440E6" opacity="0.05"/><circle cx="576" cy="384" r="1" fill="#2440E6" opacity="0.05"/><circle cx="608" cy="0" r="1" fill="#2440E6" opacity="0.05"/><circle cx="608" cy="32" r="1" fill="#2440E6" opacity="0.05"/><circle cx="608" cy="64" r="1" fill="#2440E6" opacity="0.05"/><circle cx="608" cy="96" r="1" fill="#2440E6" opacity="0.05"/><circle cx="608" cy="128" r="1" fill="#2440E6" opacity="0.05"/><circle cx="608" cy="160" r="1" fill="#2440E6" opacity="0.05"/><circle cx="608" cy="192" r="1" fill="#2440E6" opacity="0.05"/><circle cx="608" cy="224" r="1" fill="#2440E6" opacity="0.05"/><circle cx="608" cy="256" r="1" fill="#2440E6" opacity="0.05"/><circle cx="608" cy="288" r="1" fill="#2440E6" opacity="0.05"/><circle cx="608" cy="320" r="1" fill="#2440E6" opacity="0.05"/><circle cx="608" cy="352" r="1" fill="#2440E6" opacity="0.05"/><circle cx="608" cy="384" r="1" fill="#2440E6" opacity="0.05"/><circle cx="640" cy="0" r="1" fill="#2440E6" opacity="0.05"/><circle cx="640" cy="32" r="1" fill="#2440E6" opacity="0.05"/><circle cx="640" cy="64" r="1" fill="#2440E6" opacity="0.05"/><circle cx="640" cy="96" r="1" fill="#2440E6" opacity="0.05"/><circle cx="640" cy="128" r="1" fill="#2440E6" opacity="0.05"/><circle cx="640" cy="160" r="1" fill="#2440E6" opacity="0.05"/><circle cx="640" cy="192" r="1" fill="#2440E6" opacity="0.05"/><circle cx="640" cy="224" r="1" fill="#2440E6" opacity="0.05"/><circle cx="640" cy="256" r="1" fill="#2440E6" opacity="0.05"/><circle cx="640" cy="288" r="1" fill="#2440E6" opacity="0.05"/><circle cx="640" cy="320" r="1" fill="#2440E6" opacity="0.05"/><circle cx="640" cy="352" r="1" fill="#2440E6" opacity="0.05"/><circle cx="640" cy="384" r="1" fill="#2440E6" opacity="0.05"/><circle cx="672" cy="0" r="1" fill="#2440E6" opacity="0.05"/><circle cx="672" cy="32" r="1" fill="#2440E6" opacity="0.05"/><circle cx="672" cy="64" r="1" fill="#2440E6" opacity="0.05"/><circle cx="672" cy="96" r="1" fill="#2440E6" opacity="0.05"/><circle cx="672" cy="128" r="1" fill="#2440E6" opacity="0.05"/><circle cx="672" cy="160" r="1" fill="#2440E6" opacity="0.05"/><circle cx="672" cy="192" r="1" fill="#2440E6" opacity="0.05"/><circle cx="672" cy="224" r="1" fill="#2440E6" opacity="0.05"/><circle cx="672" cy="256" r="1" fill="#2440E6" opacity="0.05"/><circle cx="672" cy="288" r="1" fill="#2440E6" opacity="0.05"/><circle cx="672" cy="320" r="1" fill="#2440E6" opacity="0.05"/><circle cx="672" cy="352" r="1" fill="#2440E6" opacity="0.05"/><circle cx="672" cy="384" r="1" fill="#2440E6" opacity="0.05"/><circle cx="704" cy="0" r="1" fill="#2440E6" opacity="0.05"/><circle cx="704" cy="32" r="1" fill="#2440E6" opacity="0.05"/><circle cx="704" cy="64" r="1" fill="#2440E6" opacity="0.05"/><circle cx="704" cy="96" r="1" fill="#2440E6" opacity="0.05"/><circle cx="704" cy="128" r="1" fill="#2440E6" opacity="0.05"/><circle cx="704" cy="160" r="1" fill="#2440E6" opacity="0.05"/><circle cx="704" cy="192" r="1" fill="#2440E6" opacity="0.05"/><circle cx="704" cy="224" r="1" fill="#2440E6" opacity="0.05"/><circle cx="704" cy="256" r="1" fill="#2440E6" opacity="0.05"/><circle cx="704" cy="288" r="1" fill="#2440E6" opacity="0.05"/><circle cx="704" cy="320" r="1" fill="#2440E6" opacity="0.05"/><circle cx="704" cy="352" r="1" fill="#2440E6" opacity="0.05"/><circle cx="704" cy="384" r="1" fill="#2440E6" opacity="0.05"/><circle cx="736" cy="0" r="1" fill="#2440E6" opacity="0.05"/><circle cx="736" cy="32" r="1" fill="#2440E6" opacity="0.05"/><circle cx="736" cy="64" r="1" fill="#2440E6" opacity="0.05"/><circle cx="736" cy="96" r="1" fill="#2440E6" opacity="0.05"/><circle cx="736" cy="128" r="1" fill="#2440E6" opacity="0.05"/><circle cx="736" cy="160" r="1" fill="#2440E6" opacity="0.05"/><circle cx="736" cy="192" r="1" fill="#2440E6" opacity="0.05"/><circle cx="736" cy="224" r="1" fill="#2440E6" opacity="0.05"/><circle cx="736" cy="256" r="1" fill="#2440E6" opacity="0.05"/><circle cx="736" cy="288" r="1" fill="#2440E6" opacity="0.05"/><circle cx="736" cy="320" r="1" fill="#2440E6" opacity="0.05"/><circle cx="736" cy="352" r="1" fill="#2440E6" opacity="0.05"/><circle cx="736" cy="384" r="1" fill="#2440E6" opacity="0.05"/><circle cx="768" cy="0" r="1" fill="#2440E6" opacity="0.05"/><circle cx="768" cy="32" r="1" fill="#2440E6" opacity="0.05"/><circle cx="768" cy="64" r="1" fill="#2440E6" opacity="0.05"/><circle cx="768" cy="96" r="1" fill="#2440E6" opacity="0.05"/><circle cx="768" cy="128" r="1" fill="#2440E6" opacity="0.05"/><circle cx="768" cy="160" r="1" fill="#2440E6" opacity="0.05"/><circle cx="768" cy="192" r="1" fill="#2440E6" opacity="0.05"/><circle cx="768" cy="224" r="1" fill="#2440E6" opacity="0.05"/><circle cx="768" cy="256" r="1" fill="#2440E6" opacity="0.05"/><circle cx="768" cy="288" r="1" fill="#2440E6" opacity="0.05"/><circle cx="768" cy="320" r="1" fill="#2440E6" opacity="0.05"/><circle cx="768" cy="352" r="1" fill="#2440E6" opacity="0.05"/><circle cx="768" cy="384" r="1" fill="#2440E6" opacity="0.05"/><circle cx="800" cy="0" r="1" fill="#2440E6" opacity="0.05"/><circle cx="800" cy="32" r="1" fill="#2440E6" opacity="0.05"/><circle cx="800" cy="64" r="1" fill="#2440E6" opacity="0.05"/><circle cx="800" cy="96" r="1" fill="#2440E6" opacity="0.05"/><circle cx="800" cy="128" r="1" fill="#2440E6" opacity="0.05"/><circle cx="800" cy="160" r="1" fill="#2440E6" opacity="0.05"/><circle cx="800" cy="192" r="1" fill="#2440E6" opacity="0.05"/><circle cx="800" cy="224" r="1" fill="#2440E6" opacity="0.05"/><circle cx="800" cy="256" r="1" fill="#2440E6" opacity="0.05"/><circle cx="800" cy="288" r="1" fill="#2440E6" opacity="0.05"/><circle cx="800" cy="320" r="1" fill="#2440E6" opacity="0.05"/><circle cx="800" cy="352" r="1" fill="#2440E6" opacity="0.05"/><circle cx="800" cy="384" r="1" fill="#2440E6" opacity="0.05"/><circle cx="832" cy="0" r="1" fill="#2440E6" opacity="0.05"/><circle cx="832" cy="32" r="1" fill="#2440E6" opacity="0.05"/><circle cx="832" cy="64" r="1" fill="#2440E6" opacity="0.05"/><circle cx="832" cy="96" r="1" fill="#2440E6" opacity="0.05"/><circle cx="832" cy="128" r="1" fill="#2440E6" opacity="0.05"/><circle cx="832" cy="160" r="1" fill="#2440E6" opacity="0.05"/><circle cx="832" cy="192" r="1" fill="#2440E6" opacity="0.05"/><circle cx="832" cy="224" r="1" fill="#2440E6" opacity="0.05"/><circle cx="832" cy="256" r="1" fill="#2440E6" opacity="0.05"/><circle cx="832" cy="288" r="1" fill="#2440E6" opacity="0.05"/><circle cx="832" cy="320" r="1" fill="#2440E6" opacity="0.05"/><circle cx="832" cy="352" r="1" fill="#2440E6" opacity="0.05"/><circle cx="832" cy="384" r="1" fill="#2440E6" opacity="0.05"/><circle cx="864" cy="0" r="1" fill="#2440E6" opacity="0.05"/><circle cx="864" cy="32" r="1" fill="#2440E6" opacity="0.05"/><circle cx="864" cy="64" r="1" fill="#2440E6" opacity="0.05"/><circle cx="864" cy="96" r="1" fill="#2440E6" opacity="0.05"/><circle cx="864" cy="128" r="1" fill="#2440E6" opacity="0.05"/><circle cx="864" cy="160" r="1" fill="#2440E6" opacity="0.05"/><circle cx="864" cy="192" r="1" fill="#2440E6" opacity="0.05"/><circle cx="864" cy="224" r="1" fill="#2440E6" opacity="0.05"/><circle cx="864" cy="256" r="1" fill="#2440E6" opacity="0.05"/><circle cx="864" cy="288" r="1" fill="#2440E6" opacity="0.05"/><circle cx="864" cy="320" r="1" fill="#2440E6" opacity="0.05"/><circle cx="864" cy="352" r="1" fill="#2440E6" opacity="0.05"/><circle cx="864" cy="384" r="1" fill="#2440E6" opacity="0.05"/><circle cx="896" cy="0" r="1" fill="#2440E6" opacity="0.05"/><circle cx="896" cy="32" r="1" fill="#2440E6" opacity="0.05"/><circle cx="896" cy="64" r="1" fill="#2440E6" opacity="0.05"/><circle cx="896" cy="96" r="1" fill="#2440E6" opacity="0.05"/><circle cx="896" cy="128" r="1" fill="#2440E6" opacity="0.05"/><circle cx="896" cy="160" r="1" fill="#2440E6" opacity="0.05"/><circle cx="896" cy="192" r="1" fill="#2440E6" opacity="0.05"/><circle cx="896" cy="224" r="1" fill="#2440E6" opacity="0.05"/><circle cx="896" cy="256" r="1" fill="#2440E6" opacity="0.05"/><circle cx="896" cy="288" r="1" fill="#2440E6" opacity="0.05"/><circle cx="896" cy="320" r="1" fill="#2440E6" opacity="0.05"/><circle cx="896" cy="352" r="1" fill="#2440E6" opacity="0.05"/><circle cx="896" cy="384" r="1" fill="#2440E6" opacity="0.05"/><circle cx="928" cy="0" r="1" fill="#2440E6" opacity="0.05"/><circle cx="928" cy="32" r="1" fill="#2440E6" opacity="0.05"/><circle cx="928" cy="64" r="1" fill="#2440E6" opacity="0.05"/><circle cx="928" cy="96" r="1" fill="#2440E6" opacity="0.05"/><circle cx="928" cy="128" r="1" fill="#2440E6" opacity="0.05"/><circle cx="928" cy="160" r="1" fill="#2440E6" opacity="0.05"/><circle cx="928" cy="192" r="1" fill="#2440E6" opacity="0.05"/><circle cx="928" cy="224" r="1" fill="#2440E6" opacity="0.05"/><circle cx="928" cy="256" r="1" fill="#2440E6" opacity="0.05"/><circle cx="928" cy="288" r="1" fill="#2440E6" opacity="0.05"/><circle cx="928" cy="320" r="1" fill="#2440E6" opacity="0.05"/><circle cx="928" cy="352" r="1" fill="#2440E6" opacity="0.05"/><circle cx="928" cy="384" r="1" fill="#2440E6" opacity="0.05"/><circle cx="960" cy="0" r="1" fill="#2440E6" opacity="0.05"/><circle cx="960" cy="32" r="1" fill="#2440E6" opacity="0.05"/><circle cx="960" cy="64" r="1" fill="#2440E6" opacity="0.05"/><circle cx="960" cy="96" r="1" fill="#2440E6" opacity="0.05"/><circle cx="960" cy="128" r="1" fill="#2440E6" opacity="0.05"/><circle cx="960" cy="160" r="1" fill="#2440E6" opacity="0.05"/><circle cx="960" cy="192" r="1" fill="#2440E6" opacity="0.05"/><circle cx="960" cy="224" r="1" fill="#2440E6" opacity="0.05"/><circle cx="960" cy="256" r="1" fill="#2440E6" opacity="0.05"/><circle cx="960" cy="288" r="1" fill="#2440E6" opacity="0.05"/><circle cx="960" cy="320" r="1" fill="#2440E6" opacity="0.05"/><circle cx="960" cy="352" r="1" fill="#2440E6" opacity="0.05"/><circle cx="960" cy="384" r="1" fill="#2440E6" opacity="0.05"/><circle cx="992" cy="0" r="1" fill="#2440E6" opacity="0.05"/><circle cx="992" cy="32" r="1" fill="#2440E6" opacity="0.05"/><circle cx="992" cy="64" r="1" fill="#2440E6" opacity="0.05"/><circle cx="992" cy="96" r="1" fill="#2440E6" opacity="0.05"/><circle cx="992" cy="128" r="1" fill="#2440E6" opacity="0.05"/><circle cx="992" cy="160" r="1" fill="#2440E6" opacity="0.05"/><circle cx="992" cy="192" r="1" fill="#2440E6" opacity="0.05"/><circle cx="992" cy="224" r="1" fill="#2440E6" opacity="0.05"/><circle cx="992" cy="256" r="1" fill="#2440E6" opacity="0.05"/><circle cx="992" cy="288" r="1" fill="#2440E6" opacity="0.05"/><circle cx="992" cy="320" r="1" fill="#2440E6" opacity="0.05"/><circle cx="992" cy="352" r="1" fill="#2440E6" opacity="0.05"/><circle cx="992" cy="384" r="1" fill="#2440E6" opacity="0.05"/><circle cx="1024" cy="0" r="1" fill="#2440E6" opacity="0.05"/><circle cx="1024" cy="32" r="1" fill="#2440E6" opacity="0.05"/><circle cx="1024" cy="64" r="1" fill="#2440E6" opacity="0.05"/><circle cx="1024" cy="96" r="1" fill="#2440E6" opacity="0.05"/><circle cx="1024" cy="128" r="1" fill="#2440E6" opacity="0.05"/><circle cx="1024" cy="160" r="1" fill="#2440E6" opacity="0.05"/><circle cx="1024" cy="192" r="1" fill="#2440E6" opacity="0.05"/><circle cx="1024" cy="224" r="1" fill="#2440E6" opacity="0.05"/><circle cx="1024" cy="256" r="1" fill="#2440E6" opacity="0.05"/><circle cx="1024" cy="288" r="1" fill="#2440E6" opacity="0.05"/><circle cx="1024" cy="320" r="1" fill="#2440E6" opacity="0.05"/><circle cx="1024" cy="352" r="1" fill="#2440E6" opacity="0.05"/><circle cx="1024" cy="384" r="1" fill="#2440E6" opacity="0.05"/><circle cx="1056" cy="0" r="1" fill="#2440E6" opacity="0.05"/><circle cx="1056" cy="32" r="1" fill="#2440E6" opacity="0.05"/><circle cx="1056" cy="64" r="1" fill="#2440E6" opacity="0.05"/><circle cx="1056" cy="96" r="1" fill="#2440E6" opacity="0.05"/><circle cx="1056" cy="128" r="1" fill="#2440E6" opacity="0.05"/><circle cx="1056" cy="160" r="1" fill="#2440E6" opacity="0.05"/><circle cx="1056" cy="192" r="1" fill="#2440E6" opacity="0.05"/><circle cx="1056" cy="224" r="1" fill="#2440E6" opacity="0.05"/><circle cx="1056" cy="256" r="1" fill="#2440E6" opacity="0.05"/><circle cx="1056" cy="288" r="1" fill="#2440E6" opacity="0.05"/><circle cx="1056" cy="320" r="1" fill="#2440E6" opacity="0.05"/><circle cx="1056" cy="352" r="1" fill="#2440E6" opacity="0.05"/><circle cx="1056" cy="384" r="1" fill="#2440E6" opacity="0.05"/><circle cx="1088" cy="0" r="1" fill="#2440E6" opacity="0.05"/><circle cx="1088" cy="32" r="1" fill="#2440E6" opacity="0.05"/><circle cx="1088" cy="64" r="1" fill="#2440E6" opacity="0.05"/><circle cx="1088" cy="96" r="1" fill="#2440E6" opacity="0.05"/><circle cx="1088" cy="128" r="1" fill="#2440E6" opacity="0.05"/><circle cx="1088" cy="160" r="1" fill="#2440E6" opacity="0.05"/><circle cx="1088" cy="192" r="1" fill="#2440E6" opacity="0.05"/><circle cx="1088" cy="224" r="1" fill="#2440E6" opacity="0.05"/><circle cx="1088" cy="256" r="1" fill="#2440E6" opacity="0.05"/><circle cx="1088" cy="288" r="1" fill="#2440E6" opacity="0.05"/><circle cx="1088" cy="320" r="1" fill="#2440E6" opacity="0.05"/><circle cx="1088" cy="352" r="1" fill="#2440E6" opacity="0.05"/><circle cx="1088" cy="384" r="1" fill="#2440E6" opacity="0.05"/><circle cx="1120" cy="0" r="1" fill="#2440E6" opacity="0.05"/><circle cx="1120" cy="32" r="1" fill="#2440E6" opacity="0.05"/><circle cx="1120" cy="64" r="1" fill="#2440E6" opacity="0.05"/><circle cx="1120" cy="96" r="1" fill="#2440E6" opacity="0.05"/><circle cx="1120" cy="128" r="1" fill="#2440E6" opacity="0.05"/><circle cx="1120" cy="160" r="1" fill="#2440E6" opacity="0.05"/><circle cx="1120" cy="192" r="1" fill="#2440E6" opacity="0.05"/><circle cx="1120" cy="224" r="1" fill="#2440E6" opacity="0.05"/><circle cx="1120" cy="256" r="1" fill="#2440E6" opacity="0.05"/><circle cx="1120" cy="288" r="1" fill="#2440E6" opacity="0.05"/><circle cx="1120" cy="320" r="1" fill="#2440E6" opacity="0.05"/><circle cx="1120" cy="352" r="1" fill="#2440E6" opacity="0.05"/><circle cx="1120" cy="384" r="1" fill="#2440E6" opacity="0.05"/><circle cx="1152" cy="0" r="1" fill="#2440E6" opacity="0.05"/><circle cx="1152" cy="32" r="1" fill="#2440E6" opacity="0.05"/><circle cx="1152" cy="64" r="1" fill="#2440E6" opacity="0.05"/><circle cx="1152" cy="96" r="1" fill="#2440E6" opacity="0.05"/><circle cx="1152" cy="128" r="1" fill="#2440E6" opacity="0.05"/><circle cx="1152" cy="160" r="1" fill="#2440E6" opacity="0.05"/><circle cx="1152" cy="192" r="1" fill="#2440E6" opacity="0.05"/><circle cx="1152" cy="224" r="1" fill="#2440E6" opacity="0.05"/><circle cx="1152" cy="256" r="1" fill="#2440E6" opacity="0.05"/><circle cx="1152" cy="288" r="1" fill="#2440E6" opacity="0.05"/><circle cx="1152" cy="320" r="1" fill="#2440E6" opacity="0.05"/><circle cx="1152" cy="352" r="1" fill="#2440E6" opacity="0.05"/><circle cx="1152" cy="384" r="1" fill="#2440E6" opacity="0.05"/><circle cx="1184" cy="0" r="1" fill="#2440E6" opacity="0.05"/><circle cx="1184" cy="32" r="1" fill="#2440E6" opacity="0.05"/><circle cx="1184" cy="64" r="1" fill="#2440E6" opacity="0.05"/><circle cx="1184" cy="96" r="1" fill="#2440E6" opacity="0.05"/><circle cx="1184" cy="128" r="1" fill="#2440E6" opacity="0.05"/><circle cx="1184" cy="160" r="1" fill="#2440E6" opacity="0.05"/><circle cx="1184" cy="192" r="1" fill="#2440E6" opacity="0.05"/><circle cx="1184" cy="224" r="1" fill="#2440E6" opacity="0.05"/><circle cx="1184" cy="256" r="1" fill="#2440E6" opacity="0.05"/><circle cx="1184" cy="288" r="1" fill="#2440E6" opacity="0.05"/><circle cx="1184" cy="320" r="1" fill="#2440E6" opacity="0.05"/><circle cx="1184" cy="352" r="1" fill="#2440E6" opacity="0.05"/><circle cx="1184" cy="384" r="1" fill="#2440E6" opacity="0.05"/><circle cx="1216" cy="0" r="1" fill="#2440E6" opacity="0.05"/><circle cx="1216" cy="32" r="1" fill="#2440E6" opacity="0.05"/><circle cx="1216" cy="64" r="1" fill="#2440E6" opacity="0.05"/><circle cx="1216" cy="96" r="1" fill="#2440E6" opacity="0.05"/><circle cx="1216" cy="128" r="1" fill="#2440E6" opacity="0.05"/><circle cx="1216" cy="160" r="1" fill="#2440E6" opacity="0.05"/><circle cx="1216" cy="192" r="1" fill="#2440E6" opacity="0.05"/><circle cx="1216" cy="224" r="1" fill="#2440E6" opacity="0.05"/><circle cx="1216" cy="256" r="1" fill="#2440E6" opacity="0.05"/><circle cx="1216" cy="288" r="1" fill="#2440E6" opacity="0.05"/><circle cx="1216" cy="320" r="1" fill="#2440E6" opacity="0.05"/><circle cx="1216" cy="352" r="1" fill="#2440E6" opacity="0.05"/><circle cx="1216" cy="384" r="1" fill="#2440E6" opacity="0.05"/><circle cx="1248" cy="0" r="1" fill="#2440E6" opacity="0.05"/><circle cx="1248" cy="32" r="1" fill="#2440E6" opacity="0.05"/><circle cx="1248" cy="64" r="1" fill="#2440E6" opacity="0.05"/><circle cx="1248" cy="96" r="1" fill="#2440E6" opacity="0.05"/><circle cx="1248" cy="128" r="1" fill="#2440E6" opacity="0.05"/><circle cx="1248" cy="160" r="1" fill="#2440E6" opacity="0.05"/><circle cx="1248" cy="192" r="1" fill="#2440E6" opacity="0.05"/><circle cx="1248" cy="224" r="1" fill="#2440E6" opacity="0.05"/><circle cx="1248" cy="256" r="1" fill="#2440E6" opacity="0.05"/><circle cx="1248" cy="288" r="1" fill="#2440E6" opacity="0.05"/><circle cx="1248" cy="320" r="1" fill="#2440E6" opacity="0.05"/><circle cx="1248" cy="352" r="1" fill="#2440E6" opacity="0.05"/><circle cx="1248" cy="384" r="1" fill="#2440E6" opacity="0.05"/>
<rect x="0" y="0" width="1280" height="6" fill="#2440E6"/>
<rect x="0.5" y="0.5" width="1279" height="399" fill="none" stroke="#DDDBD2" stroke-width="1"/>
<g transform="translate(92,50.0)"><path d="M250.53 150.00L250.50 151.96L250.41 153.92L250.26 155.88L250.05 157.83L249.78 159.77L249.45 161.70L249.07 163.63L248.62 165.53L248.12 167.43L247.56 169.30L246.95 171.16L246.28 173.00L245.55 174.81L244.77 176.60L243.94 178.36L243.06 180.10L242.12 181.81L241.14 183.48L240.11 185.13L239.03 186.74L237.90 188.32L236.73 189.86L235.52 191.36L234.27 192.82L232.97 194.25L231.64 195.63L230.27 196.97L228.87 198.27L227.43 199.52L225.96 200.73L224.46 201.89L222.93 203.01L221.37 204.08L219.79 205.11L218.18 206.08L216.55 207.01L214.91 207.89L213.24 208.72L211.56 209.50L209.87 210.23L208.16 210.91L206.44 211.54L204.71 212.13L202.98 212.66L201.23 213.15L199.49 213.58L197.74 213.97L196.00 214.31L194.25 214.61L192.51 214.85L190.77 215.05L189.04 215.21L187.31 215.32L185.59 215.39L183.89 215.41L182.20 215.39L180.52 215.33L178.85 215.23L177.20 215.09L175.57 214.92L173.95 214.70L172.36 214.45L170.78 214.17L169.23 213.85L167.70 213.50L166.19 213.12L164.71 212.71L163.25 212.28L161.82 211.81L160.41 211.32L159.03 210.81L157.67 210.28L156.35 209.72L155.05 209.14L153.78 208.55L152.53 207.94L151.32 207.32L150.14 206.68L148.98 206.03L147.85 205.37L146.75 204.69L145.68 204.02L144.64 203.33L143.62 202.64L142.63 201.94L141.67 201.25L140.74 200.55L139.83 199.85L138.95 199.15L138.09 198.46L137.25 197.77L136.44 197.08L135.66 196.40L134.89 195.72L134.15 195.05L133.42 194.39L132.72 193.74L132.03 193.10L131.36 192.47L130.71 191.86L130.07 191.25L129.45 190.66L128.84 190.08L128.24 189.51L127.65 188.96L127.07 188.42L126.50 187.90L125.94 187.39L125.38 186.90L124.83 186.42L124.29 185.96L123.74 185.51L123.20 185.08L122.66 184.66L122.11 184.26L121.57 183.87L121.02 183.50L120.47 183.14L119.91 182.79L119.35 182.46L118.78 182.14L118.20 181.83L117.61 181.53L117.01 181.24L116.41 180.96L115.79 180.70L115.15 180.43L114.51 180.18L113.85 179.93L113.18 179.69L112.49 179.45L111.78 179.22L111.06 178.98L110.32 178.75L109.57 178.52L108.80 178.29L108.01 178.05L107.20 177.81L106.37 177.57L105.53 177.32L104.67 177.06L103.79 176.80L102.89 176.52L101.98 176.24L101.04 175.94L100.09 175.63L99.12 175.30L98.14 174.96L97.14 174.60L96.12 174.23L95.09 173.83L94.05 173.42L92.99 172.98L91.91 172.52L90.83 172.04L89.73 171.53L88.63 170.99L87.51 170.43L86.39 169.85L85.26 169.23L84.12 168.58L82.98 167.91" fill="none" stroke="url(#hg)" stroke-width="9" stroke-linecap="round" stroke-linejoin="round"/><path d="M50.97 123.37L50.61 121.58L50.30 119.77L50.04 117.95L49.82 116.12L49.66 114.27L49.55 112.42L49.48 110.55L49.47 108.68L49.51 106.80L49.61 104.92L49.76 103.03L49.96 101.15L50.22 99.27L50.53 97.39L50.90 95.52L51.32 93.65L51.80 91.80L52.33 89.95L52.91 88.12L53.55 86.30L54.25 84.50L55.00 82.72L55.80 80.95L56.66 79.21L57.56 77.50L58.53 75.81L59.54 74.14L60.60 72.51L61.71 70.91L62.87 69.34L64.08 67.80L65.33 66.31L66.63 64.84L67.98 63.42L69.37 62.04L70.80 60.70L72.27 59.41L73.78 58.16L75.33 56.95L76.91 55.80L78.53 54.69L80.18 53.63L81.87 52.62L83.58 51.67L85.32 50.77L87.09 49.92L88.89 49.12L90.70 48.39L92.54 47.70L94.40 47.08L96.27 46.51L98.16 46.00L100.07 45.54L101.98 45.15L103.91 44.81L105.84 44.53L107.78 44.31L109.72 44.15L111.67 44.04L113.62 44.00L115.56 44.01L117.50 44.08L119.43 44.21L121.36 44.40L123.28 44.64L125.19 44.94L127.08 45.30L128.96 45.70L130.83 46.17L132.67 46.68L134.50 47.25L136.31 47.87L138.09 48.54L139.85 49.26L141.58 50.02L143.28 50.84L144.96 51.69L146.61 52.60L148.23 53.54L149.81 54.53L151.36 55.56L152.88 56.62L154.36 57.72L155.80 58.86L157.21 60.03L158.58 61.24L159.91 62.48L161.20 63.74L162.45 65.03L163.66 66.35L164.83 67.69L165.96 69.06L167.04 70.45L168.09 71.85L169.09 73.27L170.05 74.71L170.96 76.16L171.83 77.63L172.67 79.11L173.45 80.59L174.20 82.08L174.90 83.58L175.57 85.08L176.19 86.59L176.77 88.09L177.31 89.60L177.81 91.10L178.28 92.60L178.70 94.10L179.09 95.59L179.44 97.07L179.76 98.55L180.04 100.01L180.28 101.46L180.50 102.90L180.68 104.33L180.83 105.74L180.95 107.14L181.04 108.52L181.11 109.88L181.15 111.23L181.16 112.55L181.15 113.86L181.12 115.15L181.07 116.42L181.00 117.66L180.91 118.89L180.80 120.09L180.68 121.27L180.54 122.43L180.39 123.57L180.23 124.68L180.05 125.77L179.87 126.84L179.68 127.88L179.48 128.91L179.28 129.91L179.08 130.89L178.87 131.84L178.66 132.78L178.44 133.69L178.23 134.59L178.03 135.46L177.82 136.32L177.62 137.16L177.42 137.97L177.23 138.78L177.05 139.56L176.87 140.33L176.70 141.09L176.54 141.83L176.39 142.55L176.26 143.27L176.13 143.97L176.01 144.67L175.91 145.36L175.82 146.03L175.74 146.71L175.68 147.37L175.63 148.03L175.60 148.69L175.57 149.35L175.57 150.00L175.57 150.65L175.60 151.31L175.63 151.97L175.68 152.63L175.74 153.29L175.82 153.97L175.91 154.64L176.01 155.33L176.13 156.03L176.26 156.73L176.39 157.45L176.54 158.17L176.70 158.91L176.87 159.67L177.05 160.44L177.23 161.22L177.42 162.03L177.62 162.84L177.82 163.68L178.03 164.54L178.23 165.41L178.44 166.31L178.66 167.22L178.87 168.16L179.08 169.11L179.28 170.09L179.48 171.09L179.68 172.12L179.87 173.16L180.05 174.23L180.23 175.32L180.39 176.43L180.54 177.57L180.68 178.73L180.80 179.91L180.91 181.11L181.00 182.34L181.07 183.58L181.12 184.85L181.15 186.14L181.16 187.45L181.15 188.77" fill="none" stroke="url(#hg)" stroke-width="9" stroke-linecap="round" stroke-linejoin="round"/><path d="M158.58 238.76L157.21 239.97L155.80 241.14L154.36 242.28L152.88 243.38L151.36 244.44L149.81 245.47L148.23 246.46L146.61 247.40L144.96 248.31L143.28 249.16L141.58 249.98L139.85 250.74L138.09 251.46L136.31 252.13L134.50 252.75L132.67 253.32L130.83 253.83L128.96 254.30L127.08 254.70L125.19 255.06L123.28 255.36L121.36 255.60L119.43 255.79L117.50 255.92L115.56 255.99L113.62 256.00L111.67 255.96L109.72 255.85L107.78 255.69L105.84 255.47L103.91 255.19L101.98 254.85L100.07 254.46L98.16 254.00L96.27 253.49L94.40 252.92L92.54 252.30L90.70 251.61L88.89 250.88L87.09 250.08L85.32 249.23L83.58 248.33L81.87 247.38L80.18 246.37L78.53 245.31L76.91 244.20L75.33 243.05L73.78 241.84L72.27 240.59L70.80 239.30L69.37 237.96L67.98 236.58L66.63 235.16L65.33 233.69L64.08 232.20L62.87 230.66L61.71 229.09L60.60 227.49L59.54 225.86L58.53 224.19L57.56 222.50L56.66 220.79L55.80 219.05L55.00 217.28L54.25 215.50L53.55 213.70L52.91 211.88L52.33 210.05L51.80 208.20L51.32 206.35L50.90 204.48L50.53 202.61L50.22 200.73L49.96 198.85L49.76 196.97L49.61 195.08L49.51 193.20L49.47 191.32L49.48 189.45L49.55 187.58L49.66 185.73L49.82 183.88L50.04 182.05L50.30 180.23L50.61 178.42L50.97 176.63L51.38 174.86L51.83 173.11L52.32 171.38L52.86 169.68L53.44 167.99L54.06 166.33L54.71 164.70L55.41 163.09L56.14 161.52L56.91 159.97L57.71 158.45L58.54 156.96L59.40 155.50L60.29 154.08L61.21 152.68L62.16 151.33L63.13 150.00L64.12 148.71L65.13 147.45L66.17 146.23L67.22 145.04L68.29 143.89L69.37 142.78L70.47 141.70L71.57 140.65L72.69 139.64L73.82 138.67L74.95 137.73L76.10 136.82L77.24 135.95L78.39 135.12L79.54 134.31L80.69 133.54L81.83 132.80L82.98 132.09L84.12 131.42L85.26 130.77L86.39 130.15L87.51 129.57L88.63 129.01L89.73 128.47L90.83 127.96L91.91 127.48L92.99 127.02L94.05 126.58L95.09 126.17L96.12 125.77L97.14 125.40L98.14 125.04L99.12 124.70L100.09 124.37L101.04 124.06L101.98 123.76L102.89 123.48L103.79 123.20L104.67 122.94L105.53 122.68L106.37 122.43L107.20 122.19L108.01 121.95L108.80 121.71L109.57 121.48L110.32 121.25L111.06 121.02L111.78 120.78L112.49 120.55L113.18 120.31L113.85 120.07L114.51 119.82L115.15 119.57L115.79 119.30L116.41 119.04L117.01 118.76L117.61 118.47L118.20 118.17L118.78 117.86L119.35 117.54L119.91 117.21L120.47 116.86L121.02 116.50L121.57 116.13L122.11 115.74L122.66 115.34L123.20 114.92L123.74 114.49L124.29 114.04L124.83 113.58L125.38 113.10L125.94 112.61L126.50 112.10L127.07 111.58L127.65 111.04L128.24 110.49L128.84 109.92L129.45 109.34L130.07 108.75L130.71 108.14L131.36 107.53L132.03 106.90L132.72 106.26L133.42 105.61L134.15 104.95L134.89 104.28L135.66 103.60L136.44 102.92L137.25 102.23L138.09 101.54L138.95 100.85L139.83 100.15L140.74 99.45L141.67 98.75L142.63 98.06L143.62 97.36L144.64 96.67L145.68 95.98L146.75 95.31L147.85 94.63L148.98 93.97L150.14 93.32" fill="none" stroke="url(#hg)" stroke-width="9" stroke-linecap="round" stroke-linejoin="round"/><path d="M201.23 86.85L202.98 87.34L204.71 87.87L206.44 88.46L208.16 89.09L209.87 89.77L211.56 90.50L213.24 91.28L214.91 92.11L216.55 92.99L218.18 93.92L219.79 94.89L221.37 95.92L222.93 96.99L224.46 98.11L225.96 99.27L227.43 100.48L228.87 101.73L230.27 103.03L231.64 104.37L232.97 105.75L234.27 107.18L235.52 108.64L236.73 110.14L237.90 111.68L239.03 113.26L240.11 114.87L241.14 116.52L242.12 118.19L243.06 119.90L243.94 121.64L244.77 123.40L245.55 125.19L246.28 127.00L246.95 128.84L247.56 130.70L248.12 132.57L248.62 134.47L249.07 136.37L249.45 138.30L249.78 140.23L250.05 142.17L250.26 144.12L250.41 146.08L250.50 148.04L250.53 150.00" fill="none" stroke="url(#hg)" stroke-width="9" stroke-linecap="round" stroke-linejoin="round"/></g>

<text x="470" y="150" font-family="'JetBrains Mono','SF Mono',ui-monospace,monospace" font-size="20" letter-spacing="6" fill="#2440E6">L E N S - 6 4 S  ·  v0.1.5</text>
<text x="470" y="232" font-family="'Space Grotesk','Segoe UI',system-ui,-apple-system,sans-serif" font-size="88" font-weight="700" letter-spacing="-3" fill="#11131A">KNOTstore</text>
<text x="470" y="280" font-family="'Space Grotesk','Segoe UI',system-ui,-apple-system,sans-serif" font-size="25" font-weight="500" fill="#5B6170">Knot-Addressed Structural Hashing &amp; Tiny-Pointer Storage</text>

<g font-family="'JetBrains Mono','SF Mono',ui-monospace,monospace" font-size="18">
<rect x="470" y="306" width="118" height="34" rx="5" fill="#11131A"/>
<text x="529" y="329" text-anchor="middle" fill="#FAFAF7">1-byte ptr</text>
<rect x="600" y="306" width="92" height="34" rx="5" fill="#2440E6"/>
<text x="646" y="329" text-anchor="middle" fill="#FAFAF7">186× </text>
<rect x="704" y="306" width="150" height="34" rx="5" fill="none" stroke="#DDDBD2"/>
<text x="779" y="329" text-anchor="middle" fill="#11131A">9.3× locality</text>
<rect x="866" y="306" width="132" height="34" rx="5" fill="none" stroke="#DDDBD2"/>
<text x="932" y="329" text-anchor="middle" fill="#11131A">36 tests ✓</text>
</g>
</svg>