<svg xmlns="http://www.w3.org/2000/svg" viewBox="0 0 1280 380" width="1280" height="380" role="img" aria-label="KNOTstore · LENS-64S — object storage"><defs><linearGradient id="kg" x1="0" y1="0" x2="1" y2="1"><stop offset="0" stop-color="#2D4BFF"/><stop offset="1" stop-color="#6FA0FF"/></linearGradient></defs>
<svg x="40" y="40.0" width="300" height="300" viewBox="0 0 240 240" overflow="visible"><polygon points="120.0,73.9 159.9,97.0 120.0,120.0 80.1,97.0" fill="#3D5BFF" opacity="0.16"/><polygon points="159.9,97.0 159.9,143.0 120.0,166.1 120.0,120.0" fill="#3D5BFF" opacity="0.1"/><polygon points="80.1,97.0 120.0,120.0 120.0,166.1 80.1,143.0" fill="#3D5BFF" opacity="0.06"/><path d="M120.0 73.9 L80.1 97.0" stroke="#7C93FF" stroke-width="2.592" opacity="0.95"/><path d="M120.0 73.9 L159.9 97.0" stroke="#7C93FF" stroke-width="2.592" opacity="0.95"/><path d="M133.3 81.6 L93.4 104.6" stroke="#7C93FF" stroke-width="2.592" opacity="0.95"/><path d="M106.7 81.6 L146.6 104.6" stroke="#7C93FF" stroke-width="2.592" opacity="0.95"/><path d="M146.6 89.3 L106.7 112.3" stroke="#7C93FF" stroke-width="2.592" opacity="0.95"/><path d="M93.4 89.3 L133.3 112.3" stroke="#7C93FF" stroke-width="2.592" opacity="0.95"/><path d="M159.9 97.0 L120.0 120.0" stroke="#7C93FF" stroke-width="2.592" opacity="0.95"/><path d="M80.1 97.0 L120.0 120.0" stroke="#7C93FF" stroke-width="2.592" opacity="0.95"/><path d="M159.9 97.0 L120.0 120.0" stroke="#7C93FF" stroke-width="2.592" opacity="0.95"/><path d="M159.9 97.0 L159.9 143.0" stroke="#7C93FF" stroke-width="2.592" opacity="0.95"/><path d="M159.9 112.3 L120.0 135.4" stroke="#7C93FF" stroke-width="2.592" opacity="0.95"/><path d="M146.6 104.6 L146.6 150.7" stroke="#7C93FF" stroke-width="2.592" opacity="0.95"/><path d="M159.9 127.7 L120.0 150.7" stroke="#7C93FF" stroke-width="2.592" opacity="0.95"/><path d="M133.3 112.3 L133.3 158.4" stroke="#7C93FF" stroke-width="2.592" opacity="0.95"/><path d="M159.9 143.0 L120.0 166.1" stroke="#7C93FF" stroke-width="2.592" opacity="0.95"/><path d="M120.0 120.0 L120.0 166.1" stroke="#7C93FF" stroke-width="2.592" opacity="0.95"/><path d="M80.1 97.0 L80.1 143.0" stroke="#7C93FF" stroke-width="2.592" opacity="0.95"/><path d="M80.1 97.0 L120.0 120.0" stroke="#7C93FF" stroke-width="2.592" opacity="0.95"/><path d="M93.4 104.6 L93.4 150.7" stroke="#7C93FF" stroke-width="2.592" opacity="0.95"/><path d="M80.1 112.3 L120.0 135.4" stroke="#7C93FF" stroke-width="2.592" opacity="0.95"/><path d="M106.7 112.3 L106.7 158.4" stroke="#7C93FF" stroke-width="2.592" opacity="0.95"/><path d="M80.1 127.7 L120.0 150.7" stroke="#7C93FF" stroke-width="2.592" opacity="0.95"/><path d="M120.0 120.0 L120.0 166.1" stroke="#7C93FF" stroke-width="2.592" opacity="0.95"/><path d="M80.1 143.0 L120.0 166.1" stroke="#7C93FF" stroke-width="2.592" opacity="0.95"/><polygon points="120.0,73.9 159.9,97.0 159.9,143.0 120.0,166.1 80.1,143.0 80.1,97.0" fill="none" stroke="#7C93FF" stroke-width="3.9" stroke-linejoin="round"/><path d="M218.63 120.00L218.60 121.93L218.51 123.85L218.37 125.77L218.16 127.68L217.90 129.59L217.58 131.48L217.20 133.37L216.76 135.24L216.27 137.10L215.72 138.94L215.12 140.76L214.46 142.56L213.75 144.34L212.98 146.10L212.17 147.83L211.30 149.53L210.38 151.21L209.42 152.85L208.41 154.47L207.35 156.05L206.24 157.59L205.10 159.10L203.91 160.58L202.68 162.01L201.41 163.41L200.10 164.77L198.76 166.08L197.38 167.36L195.97 168.59L194.52 169.77L193.05 170.92L191.55 172.01L190.02 173.06L188.47 174.07L186.89 175.02L185.30 175.93L183.68 176.80L182.05 177.61L180.40 178.38L178.74 179.09L177.06 179.76L175.37 180.38L173.68 180.95L171.98 181.48L170.27 181.95L168.56 182.38L166.84 182.76L165.13 183.10L163.41 183.39L161.70 183.63L160.00 183.83L158.30 183.98L156.61 184.09L154.92 184.15L153.25 184.18L151.59 184.16L149.94 184.10L148.31 184.00L146.69 183.87L145.09 183.69L143.50 183.48L141.94 183.24L140.39 182.96L138.87 182.65L137.37 182.30L135.89 181.93L134.43 181.53L133.00 181.10L131.59 180.65L130.21 180.17L128.86 179.66L127.53 179.14L126.23 178.59L124.95 178.03L123.71 177.45L122.49 176.85L121.30 176.23L120.13 175.61L119.00 174.97L117.89 174.32L116.81 173.66L115.76 173.00L114.74 172.32L113.74 171.65L112.77 170.96L111.83 170.28L110.91 169.60L110.02 168.91L109.15 168.23L108.31 167.54L107.49 166.86L106.70 166.19L105.93 165.52L105.18 164.86L104.45 164.20L103.73 163.56L103.04 162.92L102.37 162.29L101.71 161.67L101.07 161.07L100.45 160.47L99.83 159.89L99.23 159.32L98.65 158.77L98.07 158.22L97.50 157.70L96.94 157.18L96.39 156.68L95.85 156.20L95.31 155.73L94.77 155.28L94.24 154.84L93.70 154.42L93.17 154.01L92.64 153.61L92.10 153.23L91.57 152.87L91.03 152.51L90.48 152.17L89.93 151.85L89.37 151.53L88.80 151.23L88.22 150.94L87.64 150.65L87.04 150.38L86.43 150.12L85.81 149.86L85.18 149.61L84.53 149.37L83.87 149.13L83.19 148.90L82.50 148.66L81.80 148.44L81.07 148.21L80.33 147.98L79.57 147.75L78.80 147.52L78.01 147.29L77.20 147.05L76.37 146.80L75.52 146.55L74.66 146.29L73.78 146.02L72.88 145.74L71.97 145.45L71.03 145.15L70.08 144.83L69.12 144.49L68.14 144.14L67.14 143.77L66.13 143.38L65.10 142.98L64.06 142.55L63.01 142.10L61.95 141.62L60.87 141.12L59.79 140.60L58.69 140.05L57.59 139.47L56.48 138.87L55.36 138.23L54.24 137.57" fill="none" stroke="url(#kg)" stroke-width="9.00" stroke-linecap="round" stroke-linejoin="round"/><path d="M22.84 93.87L22.49 92.11L22.18 90.34L21.93 88.56L21.71 86.76L21.55 84.95L21.44 83.13L21.38 81.30L21.37 79.46L21.41 77.62L21.50 75.77L21.65 73.92L21.85 72.07L22.10 70.23L22.41 68.38L22.77 66.55L23.18 64.72L23.65 62.89L24.17 61.08L24.75 59.28L25.37 57.50L26.06 55.73L26.79 53.98L27.58 52.26L28.42 50.55L29.31 48.86L30.25 47.21L31.24 45.58L32.29 43.97L33.38 42.40L34.51 40.86L35.70 39.36L36.93 37.88L38.21 36.45L39.53 35.06L40.89 33.70L42.29 32.39L43.74 31.12L45.22 29.89L46.74 28.71L48.29 27.57L49.88 26.49L51.50 25.45L53.15 24.46L54.84 23.52L56.55 22.64L58.28 21.81L60.04 21.03L61.82 20.30L63.63 19.63L65.45 19.02L67.29 18.46L69.14 17.96L71.01 17.51L72.89 17.12L74.78 16.79L76.68 16.52L78.58 16.30L80.48 16.14L82.39 16.04L84.30 16.00L86.21 16.01L88.11 16.08L90.01 16.21L91.90 16.39L93.78 16.63L95.66 16.92L97.52 17.27L99.36 17.67L101.19 18.13L103.00 18.63L104.79 19.19L106.56 19.80L108.31 20.45L110.04 21.16L111.74 21.91L113.41 22.71L115.06 23.55L116.67 24.43L118.26 25.36L119.81 26.33L121.34 27.34L122.82 28.38L124.28 29.47L125.69 30.58L127.07 31.73L128.42 32.91L129.72 34.13L130.99 35.37L132.22 36.64L133.40 37.93L134.55 39.25L135.66 40.59L136.72 41.95L137.75 43.33L138.73 44.72L139.67 46.13L140.57 47.56L141.42 49.00L142.24 50.44L143.01 51.90L143.74 53.36L144.43 54.83L145.09 56.31L145.70 57.78L146.27 59.26L146.80 60.74L147.29 62.21L147.74 63.69L148.16 65.15L148.54 66.62L148.88 68.07L149.19 69.52L149.47 70.95L149.71 72.38L149.92 73.79L150.10 75.19L150.25 76.58L150.37 77.95L150.46 79.30L150.52 80.64L150.56 81.96L150.58 83.26L150.57 84.54L150.54 85.81L150.48 87.05L150.41 88.27L150.33 89.48L150.22 90.66L150.10 91.81L149.96 92.95L149.82 94.07L149.66 95.16L149.49 96.23L149.31 97.28L149.12 98.30L148.93 99.31L148.73 100.29L148.53 101.25L148.32 102.19L148.12 103.10L147.91 104.00L147.70 104.88L147.50 105.74L147.30 106.58L147.10 107.40L146.90 108.20L146.72 108.99L146.54 109.76L146.36 110.51L146.20 111.25L146.04 111.98L145.90 112.69L145.76 113.40L145.64 114.09L145.52 114.77L145.42 115.44L145.33 116.11L145.26 116.77L145.20 117.42L145.15 118.07L145.11 118.71L145.09 119.36L145.09 120.00L145.09 120.64L145.11 121.29L145.15 121.93L145.20 122.58L145.26 123.23L145.33 123.89L145.42 124.56L145.52 125.23L145.64 125.91L145.76 126.60L145.90 127.31L146.04 128.02L146.20 128.75L146.36 129.49L146.54 130.24L146.72 131.01L146.90 131.80L147.10 132.60L147.30 133.42L147.50 134.26L147.70 135.12L147.91 136.00L148.12 136.90L148.32 137.81L148.53 138.75L148.73 139.71L148.93 140.69L149.12 141.70L149.31 142.72L149.49 143.77L149.66 144.84L149.82 145.93L149.96 147.05L150.10 148.19L150.22 149.34L150.33 150.52L150.41 151.73L150.48 152.95L150.54 154.19L150.57 155.46L150.58 156.74L150.56 158.04" fill="none" stroke="url(#kg)" stroke-width="9.00" stroke-linecap="round" stroke-linejoin="round"/><path d="M128.42 207.09L127.07 208.27L125.69 209.42L124.28 210.53L122.82 211.62L121.34 212.66L119.81 213.67L118.26 214.64L116.67 215.57L115.06 216.45L113.41 217.29L111.74 218.09L110.04 218.84L108.31 219.55L106.56 220.20L104.79 220.81L103.00 221.37L101.19 221.87L99.36 222.33L97.52 222.73L95.66 223.08L93.78 223.37L91.90 223.61L90.01 223.79L88.11 223.92L86.21 223.99L84.30 224.00L82.39 223.96L80.48 223.86L78.58 223.70L76.68 223.48L74.78 223.21L72.89 222.88L71.01 222.49L69.14 222.04L67.29 221.54L65.45 220.98L63.63 220.37L61.82 219.70L60.04 218.97L58.28 218.19L56.55 217.36L54.84 216.48L53.15 215.54L51.50 214.55L49.88 213.51L48.29 212.43L46.74 211.29L45.22 210.11L43.74 208.88L42.29 207.61L40.89 206.30L39.53 204.94L38.21 203.55L36.93 202.12L35.70 200.64L34.51 199.14L33.38 197.60L32.29 196.03L31.24 194.42L30.25 192.79L29.31 191.14L28.42 189.45L27.58 187.74L26.79 186.02L26.06 184.27L25.37 182.50L24.75 180.72L24.17 178.92L23.65 177.11L23.18 175.28L22.77 173.45L22.41 171.62L22.10 169.77L21.85 167.93L21.65 166.08L21.50 164.23L21.41 162.38L21.37 160.54L21.38 158.70L21.44 156.87L21.55 155.05L21.71 153.24L21.93 151.44L22.18 149.66L22.49 147.89L22.84 146.13L23.24 144.39L23.68 142.68L24.17 140.98L24.69 139.31L25.26 137.65L25.87 136.03L26.51 134.42L27.19 132.85L27.91 131.30L28.66 129.78L29.45 128.29L30.27 126.83L31.11 125.40L31.99 124.00L32.89 122.63L33.82 121.30L34.77 120.00L35.74 118.73L36.74 117.50L37.75 116.30L38.78 115.14L39.83 114.01L40.89 112.91L41.97 111.85L43.05 110.83L44.15 109.84L45.26 108.88L46.37 107.96L47.49 107.07L48.61 106.22L49.74 105.40L50.87 104.61L51.99 103.85L53.12 103.13L54.24 102.43L55.36 101.77L56.48 101.13L57.59 100.53L58.69 99.95L59.79 99.40L60.87 98.88L61.95 98.38L63.01 97.90L64.06 97.45L65.10 97.02L66.13 96.62L67.14 96.23L68.14 95.86L69.12 95.51L70.08 95.17L71.03 94.85L71.97 94.55L72.88 94.26L73.78 93.98L74.66 93.71L75.52 93.45L76.37 93.20L77.20 92.95L78.01 92.71L78.80 92.48L79.57 92.25L80.33 92.02L81.07 91.79L81.80 91.56L82.50 91.34L83.19 91.10L83.87 90.87L84.53 90.63L85.18 90.39L85.81 90.14L86.43 89.88L87.04 89.62L87.64 89.35L88.22 89.06L88.80 88.77L89.37 88.47L89.93 88.15L90.48 87.83L91.03 87.49L91.57 87.13L92.10 86.77L92.64 86.39L93.17 85.99L93.70 85.58L94.24 85.16L94.77 84.72L95.31 84.27L95.85 83.80L96.39 83.32L96.94 82.82L97.50 82.30L98.07 81.78L98.65 81.23L99.23 80.68L99.83 80.11L100.45 79.53L101.07 78.93L101.71 78.33L102.37 77.71L103.04 77.08L103.73 76.44L104.45 75.80L105.18 75.14L105.93 74.48L106.70 73.81L107.49 73.14L108.31 72.46L109.15 71.77L110.02 71.09L110.91 70.40L111.83 69.72L112.77 69.04L113.74 68.35L114.74 67.68L115.76 67.00L116.81 66.34L117.89 65.68L119.00 65.03L120.13 64.39" fill="none" stroke="url(#kg)" stroke-width="9.00" stroke-linecap="round" stroke-linejoin="round"/><path d="M170.27 58.05L171.98 58.52L173.68 59.05L175.37 59.62L177.06 60.24L178.74 60.91L180.40 61.62L182.05 62.39L183.68 63.20L185.30 64.07L186.89 64.98L188.47 65.93L190.02 66.94L191.55 67.99L193.05 69.08L194.52 70.23L195.97 71.41L197.38 72.64L198.76 73.92L200.10 75.23L201.41 76.59L202.68 77.99L203.91 79.42L205.10 80.90L206.24 82.41L207.35 83.95L208.41 85.53L209.42 87.15L210.38 88.79L211.30 90.47L212.17 92.17L212.98 93.90L213.75 95.66L214.46 97.44L215.12 99.24L215.72 101.06L216.27 102.90L216.76 104.76L217.20 106.63L217.58 108.52L217.90 110.41L218.16 112.32L218.37 114.23L218.51 116.15L218.60 118.07L218.63 120.00" fill="none" stroke="url(#kg)" stroke-width="9.00" stroke-linecap="round" stroke-linejoin="round"/></svg>
<text x="380" y="118" font-family="'JetBrains Mono','SF Mono',ui-monospace,monospace" font-size="19" letter-spacing="6" fill="#2D4BFF">L E N S - 6 4 S  ·  v0.1.5</text>
<text x="378" y="205" font-family="'Space Grotesk','Segoe UI',system-ui,-apple-system,sans-serif" font-size="86" font-weight="700" letter-spacing="-3"><tspan fill="#2D4BFF">KNOT</tspan><tspan fill="#8A8F9C">store</tspan></text>
<text x="380" y="252" font-family="'Space Grotesk','Segoe UI',system-ui,-apple-system,sans-serif" font-size="24" font-weight="500" fill="#8A8F9C">Knot-Addressed Structural Hashing &amp; Tiny-Pointer Storage</text>
<rect x="380" y="300" width="138" height="40" rx="6" fill="#2D4BFF"/><text x="449.0" y="326" text-anchor="middle" font-family="'JetBrains Mono','SF Mono',ui-monospace,monospace" font-size="17" fill="#fff">1-byte ptr</text><rect x="530" y="300" width="88" height="40" rx="6" fill="none" stroke="#2D4BFF" stroke-width="1.5"/><text x="574.0" y="326" text-anchor="middle" font-family="'JetBrains Mono','SF Mono',ui-monospace,monospace" font-size="17" fill="#2D4BFF">186×</text><rect x="630" y="300" width="168" height="40" rx="6" fill="none" stroke="#8A8F9C" stroke-width="1.5"/><text x="714.0" y="326" text-anchor="middle" font-family="'JetBrains Mono','SF Mono',ui-monospace,monospace" font-size="17" fill="#8A8F9C">9.3× locality</text><rect x="810" y="300" width="148" height="40" rx="6" fill="none" stroke="#8A8F9C" stroke-width="1.5"/><text x="884.0" y="326" text-anchor="middle" font-family="'JetBrains Mono','SF Mono',ui-monospace,monospace" font-size="17" fill="#8A8F9C">36 tests ✓</text></svg>