<svg xmlns="http://www.w3.org/2000/svg" viewBox="0 0 240 240" width="240" height="240" role="img" aria-label="KNOTstore mark"><path d="M205.35 120.00L205.33 121.67L205.25 123.33L205.12 124.99L204.95 126.65L204.72 128.30L204.44 129.94L204.11 131.57L203.74 133.19L203.31 134.80L202.84 136.39L202.31 137.97L201.74 139.52L201.13 141.06L200.47 142.58L199.76 144.08L199.01 145.56L198.22 147.01L197.38 148.43L196.51 149.83L195.59 151.19L194.63 152.53L193.64 153.84L192.61 155.12L191.55 156.36L190.45 157.57L189.32 158.74L188.15 159.88L186.96 160.98L185.74 162.05L184.49 163.07L183.22 164.06L181.92 165.01L180.60 165.92L179.25 166.79L177.89 167.62L176.51 168.40L175.11 169.15L173.70 169.85L172.27 170.52L170.83 171.14L169.38 171.72L167.92 172.25L166.45 172.75L164.98 173.20L163.50 173.61L162.02 173.99L160.54 174.32L159.05 174.61L157.57 174.85L156.09 175.06L154.61 175.23L153.14 175.37L151.68 175.46L150.22 175.52L148.77 175.54L147.34 175.52L145.91 175.47L144.50 175.39L143.09 175.27L141.71 175.12L140.34 174.94L138.98 174.72L137.65 174.48L136.33 174.21L135.03 173.92L133.75 173.59L132.49 173.25L131.25 172.88L130.03 172.48L128.84 172.07L127.66 171.63L126.51 171.18L125.39 170.71L124.29 170.22L123.21 169.71L122.15 169.20L121.12 168.66L120.11 168.12L119.13 167.57L118.17 167.01L117.24 166.44L116.33 165.86L115.45 165.28L114.58 164.69L113.74 164.10L112.93 163.51L112.14 162.92L111.36 162.33L110.61 161.73L109.89 161.14L109.18 160.56L108.49 159.97L107.82 159.39L107.17 158.82L106.54 158.25L105.92 157.69L105.33 157.14L104.74 156.60L104.17 156.06L103.62 155.54L103.08 155.02L102.55 154.52L102.03 154.03L101.52 153.55L101.02 153.08L100.53 152.62L100.05 152.18L99.57 151.75L99.10 151.33L98.63 150.92L98.17 150.53L97.70 150.15L97.24 149.78L96.78 149.43L96.32 149.09L95.86 148.76L95.39 148.44L94.93 148.14L94.45 147.84L93.97 147.56L93.49 147.29L93.00 147.02L92.50 146.77L91.99 146.53L91.48 146.29L90.95 146.06L90.41 145.84L89.87 145.62L89.31 145.41L88.73 145.21L88.15 145.01L87.55 144.81L86.94 144.61L86.31 144.41L85.67 144.21L85.02 144.02L84.35 143.82L83.66 143.61L82.96 143.41L82.24 143.20L81.51 142.98L80.76 142.75L80.00 142.52L79.22 142.28L78.43 142.02L77.62 141.76L76.80 141.48L75.97 141.19L75.12 140.89L74.25 140.57L73.38 140.24L72.49 139.88L71.59 139.51L70.68 139.12L69.76 138.71L68.83 138.28L67.89 137.83L66.95 137.35L65.99 136.85L65.03 136.33L64.07 135.78L63.10 135.20" fill="none" stroke="#2440E6" stroke-width="13" stroke-linecap="round" stroke-linejoin="round"/><path d="M35.92 97.39L35.62 95.87L35.35 94.34L35.13 92.79L34.95 91.23L34.81 89.67L34.71 88.09L34.66 86.51L34.65 84.92L34.68 83.32L34.76 81.72L34.89 80.12L35.06 78.52L35.28 76.93L35.55 75.33L35.86 73.74L36.21 72.16L36.62 70.58L37.07 69.01L37.57 67.46L38.11 65.91L38.70 64.39L39.34 62.87L40.02 61.38L40.75 59.90L41.52 58.44L42.33 57.01L43.19 55.59L44.09 54.21L45.04 52.85L46.02 51.51L47.05 50.21L48.11 48.94L49.22 47.70L50.36 46.49L51.54 45.32L52.75 44.18L54.00 43.08L55.28 42.02L56.60 41.00L57.94 40.02L59.32 39.08L60.72 38.18L62.15 37.32L63.61 36.51L65.09 35.75L66.59 35.03L68.11 34.35L69.65 33.72L71.22 33.14L72.79 32.61L74.38 32.13L75.99 31.69L77.60 31.31L79.23 30.97L80.87 30.69L82.51 30.45L84.15 30.26L85.80 30.13L87.46 30.04L89.11 30.00L90.76 30.01L92.41 30.07L94.05 30.18L95.69 30.34L97.31 30.55L98.93 30.80L100.54 31.10L102.14 31.45L103.72 31.84L105.29 32.28L106.84 32.76L108.37 33.29L109.89 33.85L111.38 34.46L112.85 35.11L114.30 35.80L115.72 36.53L117.12 37.30L118.49 38.10L119.84 38.94L121.16 39.81L122.44 40.72L123.70 41.65L124.93 42.62L126.12 43.61L127.28 44.64L128.41 45.69L129.51 46.76L130.57 47.86L131.60 48.98L132.59 50.12L133.55 51.28L134.47 52.45L135.36 53.65L136.21 54.85L137.02 56.08L137.80 57.31L138.54 58.55L139.24 59.81L139.91 61.07L140.55 62.33L141.15 63.61L141.71 64.88L142.24 66.16L142.73 67.44L143.19 68.72L143.62 69.99L144.01 71.27L144.37 72.54L144.70 73.80L145.00 75.06L145.26 76.31L145.50 77.55L145.71 78.79L145.89 80.01L146.05 81.22L146.18 82.42L146.28 83.61L146.36 84.78L146.41 85.94L146.45 87.08L146.46 88.21L146.45 89.32L146.43 90.41L146.38 91.49L146.32 92.54L146.24 93.58L146.15 94.61L146.05 95.61L145.93 96.59L145.80 97.56L145.66 98.50L145.52 99.43L145.36 100.34L145.20 101.22L145.03 102.09L144.86 102.94L144.69 103.77L144.51 104.58L144.33 105.38L144.15 106.16L143.97 106.92L143.80 107.66L143.62 108.38L143.45 109.09L143.28 109.79L143.12 110.47L142.96 111.14L142.81 111.79L142.67 112.43L142.54 113.06L142.41 113.68L142.29 114.29L142.18 114.88L142.09 115.47L142.00 116.06L141.92 116.63L141.86 117.20L141.80 117.77L141.76 118.33L141.73 118.89L141.71 119.44L141.71 120.00L141.71 120.56L141.73 121.11L141.76 121.67L141.80 122.23L141.86 122.80L141.92 123.37L142.00 123.94L142.09 124.53L142.18 125.12L142.29 125.71L142.41 126.32L142.54 126.94L142.67 127.57L142.81 128.21L142.96 128.86L143.12 129.53L143.28 130.21L143.45 130.91L143.62 131.62L143.80 132.34L143.97 133.08L144.15 133.84L144.33 134.62L144.51 135.42L144.69 136.23L144.86 137.06L145.03 137.91L145.20 138.78L145.36 139.66L145.52 140.57L145.66 141.50L145.80 142.44L145.93 143.41L146.05 144.39L146.15 145.39L146.24 146.42L146.32 147.46L146.38 148.51L146.43 149.59L146.45 150.68L146.46 151.79L146.45 152.92" fill="none" stroke="#2440E6" stroke-width="13" stroke-linecap="round" stroke-linejoin="round"/><path d="M127.28 195.36L126.12 196.39L124.93 197.38L123.70 198.35L122.44 199.28L121.16 200.19L119.84 201.06L118.49 201.90L117.12 202.70L115.72 203.47L114.30 204.20L112.85 204.89L111.38 205.54L109.89 206.15L108.37 206.71L106.84 207.24L105.29 207.72L103.72 208.16L102.14 208.55L100.54 208.90L98.93 209.20L97.31 209.45L95.69 209.66L94.05 209.82L92.41 209.93L90.76 209.99L89.11 210.00L87.46 209.96L85.80 209.87L84.15 209.74L82.51 209.55L80.87 209.31L79.23 209.03L77.60 208.69L75.99 208.31L74.38 207.87L72.79 207.39L71.22 206.86L69.65 206.28L68.11 205.65L66.59 204.97L65.09 204.25L63.61 203.49L62.15 202.68L60.72 201.82L59.32 200.92L57.94 199.98L56.60 199.00L55.28 197.98L54.00 196.92L52.75 195.82L51.54 194.68L50.36 193.51L49.22 192.30L48.11 191.06L47.05 189.79L46.02 188.49L45.04 187.15L44.09 185.79L43.19 184.41L42.33 182.99L41.52 181.56L40.75 180.10L40.02 178.62L39.34 177.13L38.70 175.61L38.11 174.09L37.57 172.54L37.07 170.99L36.62 169.42L36.21 167.84L35.86 166.26L35.55 164.67L35.28 163.07L35.06 161.48L34.89 159.88L34.76 158.28L34.68 156.68L34.65 155.08L34.66 153.49L34.71 151.91L34.81 150.33L34.95 148.77L35.13 147.21L35.35 145.66L35.62 144.13L35.92 142.61L36.26 141.11L36.65 139.62L37.07 138.16L37.52 136.71L38.01 135.28L38.54 133.87L39.10 132.48L39.69 131.12L40.31 129.78L40.96 128.46L41.64 127.17L42.35 125.91L43.08 124.67L43.83 123.46L44.62 122.28L45.42 121.13L46.24 120.00L47.08 118.90L47.94 117.84L48.82 116.80L49.71 115.79L50.62 114.81L51.54 113.87L52.47 112.95L53.41 112.06L54.36 111.21L55.32 110.38L56.28 109.58L57.25 108.81L58.22 108.07L59.20 107.36L60.17 106.68L61.15 106.02L62.12 105.40L63.10 104.80L64.07 104.22L65.03 103.67L65.99 103.15L66.95 102.65L67.89 102.17L68.83 101.72L69.76 101.29L70.68 100.88L71.59 100.49L72.49 100.12L73.38 99.76L74.25 99.43L75.12 99.11L75.97 98.81L76.80 98.52L77.62 98.24L78.43 97.98L79.22 97.72L80.00 97.48L80.76 97.25L81.51 97.02L82.24 96.80L82.96 96.59L83.66 96.39L84.35 96.18L85.02 95.98L85.67 95.79L86.31 95.59L86.94 95.39L87.55 95.19L88.15 94.99L88.73 94.79L89.31 94.59L89.87 94.38L90.41 94.16L90.95 93.94L91.48 93.71L91.99 93.47L92.50 93.23L93.00 92.98L93.49 92.71L93.97 92.44L94.45 92.16L94.93 91.86L95.39 91.56L95.86 91.24L96.32 90.91L96.78 90.57L97.24 90.22L97.70 89.85L98.17 89.47L98.63 89.08L99.10 88.67L99.57 88.25L100.05 87.82L100.53 87.38L101.02 86.92L101.52 86.45L102.03 85.97L102.55 85.48L103.08 84.98L103.62 84.46L104.17 83.94L104.74 83.40L105.33 82.86L105.92 82.31L106.54 81.75L107.17 81.18L107.82 80.61L108.49 80.03L109.18 79.44L109.89 78.86L110.61 78.27L111.36 77.67L112.14 77.08L112.93 76.49L113.74 75.90L114.58 75.31L115.45 74.72L116.33 74.14L117.24 73.56L118.17 72.99L119.13 72.43L120.11 71.88" fill="none" stroke="#2440E6" stroke-width="13" stroke-linecap="round" stroke-linejoin="round"/><path d="M163.50 66.39L164.98 66.80L166.45 67.25L167.92 67.75L169.38 68.28L170.83 68.86L172.27 69.48L173.70 70.15L175.11 70.85L176.51 71.60L177.89 72.38L179.25 73.21L180.60 74.08L181.92 74.99L183.22 75.94L184.49 76.93L185.74 77.95L186.96 79.02L188.15 80.12L189.32 81.26L190.45 82.43L191.55 83.64L192.61 84.88L193.64 86.16L194.63 87.47L195.59 88.81L196.51 90.17L197.38 91.57L198.22 92.99L199.01 94.44L199.76 95.92L200.47 97.42L201.13 98.94L201.74 100.48L202.31 102.03L202.84 103.61L203.31 105.20L203.74 106.81L204.11 108.43L204.44 110.06L204.72 111.70L204.95 113.35L205.12 115.01L205.25 116.67L205.33 118.33L205.35 120.00" fill="none" stroke="#2440E6" stroke-width="13" stroke-linecap="round" stroke-linejoin="round"/></svg>