<svg xmlns="http://www.w3.org/2000/svg" viewBox="0 0 780 272" width="780" height="272" role="img" aria-label="KNOTstore — object storage"><defs><linearGradient id="kg" x1="0" y1="0" x2="1" y2="1"><stop offset="0" stop-color="#2D4BFF"/><stop offset="1" stop-color="#7FB0FF"/></linearGradient></defs>
<svg x="2" y="8" width="256" height="256" viewBox="0 0 256 256" overflow="visible"><defs><linearGradient id="kg" x1="0" y1="0" x2="1" y2="1"><stop offset="0" stop-color="#2D4BFF"/><stop offset="1" stop-color="#7FB0FF"/></linearGradient></defs><circle cx="128.0" cy="128.0" r="122.0" fill="none" stroke="#5566AA" stroke-width="1.4" opacity="0.5"/><circle cx="128.0" cy="128.0" r="116.0" fill="none" stroke="#5566AA" stroke-width="0.8" opacity="0.3"/><circle cx="128.00" cy="9.00" r="3.4" fill="#2D4BFF"/><circle cx="231.06" cy="187.50" r="3.4" fill="#2D4BFF"/><circle cx="24.94" cy="187.50" r="3.4" fill="#2D4BFF"/><circle cx="231.06" cy="68.50" r="1.8" fill="#7FB0FF" opacity="0.8"/><circle cx="128.00" cy="247.00" r="1.8" fill="#7FB0FF" opacity="0.8"/><circle cx="24.94" cy="68.50" r="1.8" fill="#7FB0FF" opacity="0.8"/><polygon points="128.00,16.00 224.99,72.00 224.99,184.00 128.00,240.00 31.01,184.00 31.01,72.00" fill="none" stroke="#6673A0" stroke-width="2" stroke-linejoin="round" opacity="0.8"/><polygon points="128.00,84.00 166.11,106.00 128.00,128.00 89.89,106.00" fill="#3D5BFF" opacity="0.2"/><polygon points="166.11,106.00 166.11,150.00 128.00,172.00 128.00,128.00" fill="#3D5BFF" opacity="0.12"/><polygon points="89.89,106.00 128.00,128.00 128.00,172.00 89.89,150.00" fill="#3D5BFF" opacity="0.05"/><path d="M128.00 84.00 L89.89 106.00" stroke="#8AA0FF" stroke-width="2.4" opacity="0.9"/><path d="M128.00 84.00 L166.11 106.00" stroke="#8AA0FF" stroke-width="2.4" opacity="0.9"/><path d="M140.70 91.33 L102.60 113.33" stroke="#8AA0FF" stroke-width="2.4" opacity="0.9"/><path d="M115.30 91.33 L153.40 113.33" stroke="#8AA0FF" stroke-width="2.4" opacity="0.9"/><path d="M153.40 98.67 L115.30 120.67" stroke="#8AA0FF" stroke-width="2.4" opacity="0.9"/><path d="M102.60 98.67 L140.70 120.67" stroke="#8AA0FF" stroke-width="2.4" opacity="0.9"/><path d="M166.11 106.00 L128.00 128.00" stroke="#8AA0FF" stroke-width="2.4" opacity="0.9"/><path d="M89.89 106.00 L128.00 128.00" stroke="#8AA0FF" stroke-width="2.4" opacity="0.9"/><path d="M166.11 106.00 L128.00 128.00" stroke="#8AA0FF" stroke-width="2.4" opacity="0.9"/><path d="M166.11 106.00 L166.11 150.00" stroke="#8AA0FF" stroke-width="2.4" opacity="0.9"/><path d="M166.11 120.67 L128.00 142.67" stroke="#8AA0FF" stroke-width="2.4" opacity="0.9"/><path d="M153.40 113.33 L153.40 157.33" stroke="#8AA0FF" stroke-width="2.4" opacity="0.9"/><path d="M166.11 135.33 L128.00 157.33" stroke="#8AA0FF" stroke-width="2.4" opacity="0.9"/><path d="M140.70 120.67 L140.70 164.67" stroke="#8AA0FF" stroke-width="2.4" opacity="0.9"/><path d="M166.11 150.00 L128.00 172.00" stroke="#8AA0FF" stroke-width="2.4" opacity="0.9"/><path d="M128.00 128.00 L128.00 172.00" stroke="#8AA0FF" stroke-width="2.4" opacity="0.9"/><path d="M89.89 106.00 L89.89 150.00" stroke="#8AA0FF" stroke-width="2.4" opacity="0.9"/><path d="M89.89 106.00 L128.00 128.00" stroke="#8AA0FF" stroke-width="2.4" opacity="0.9"/><path d="M102.60 113.33 L102.60 157.33" stroke="#8AA0FF" stroke-width="2.4" opacity="0.9"/><path d="M89.89 120.67 L128.00 142.67" stroke="#8AA0FF" stroke-width="2.4" opacity="0.9"/><path d="M115.30 120.67 L115.30 164.67" stroke="#8AA0FF" stroke-width="2.4" opacity="0.9"/><path d="M89.89 135.33 L128.00 157.33" stroke="#8AA0FF" stroke-width="2.4" opacity="0.9"/><path d="M128.00 128.00 L128.00 172.00" stroke="#8AA0FF" stroke-width="2.4" opacity="0.9"/><path d="M89.89 150.00 L128.00 172.00" stroke="#8AA0FF" stroke-width="2.4" opacity="0.9"/><polygon points="128.00,84.00 166.11,106.00 166.11,150.00 128.00,172.00 89.89,150.00 89.89,106.00" fill="none" stroke="#8AA0FF" stroke-width="3.84" stroke-linejoin="round"/><path d="M128.00 224.00L127.16 223.99L126.32 223.97L125.49 223.94L124.65 223.90L123.82 223.84L122.98 223.77L122.15 223.69L121.32 223.59L120.49 223.48L119.66 223.36L118.83 223.23L118.01 223.08L117.18 222.92L116.37 222.75L115.55 222.57L114.74 222.37L113.93 222.17L113.12 221.94L112.32 221.71L111.52 221.47L110.72 221.21L109.93 220.94L109.15 220.66L108.37 220.37L107.59 220.07L106.82 219.75L106.05 219.42L105.29 219.09L104.53 218.74L103.78 218.38L103.04 218.00L102.30 217.62L101.57 217.23L100.84 216.82L100.12 216.41L99.41 215.98L98.71 215.55L98.01 215.10L97.32 214.65L96.63 214.18L95.96 213.71L95.29 213.22L94.63 212.73L93.97 212.22L93.33 211.71L92.69 211.19L92.06 210.66L91.44 210.12L90.83 209.57L90.22 209.01L89.63 208.45L89.04 207.87L88.47 207.29L87.90 206.71L87.34 206.11L86.79 205.51L86.25 204.90L85.72 204.28L85.20 203.65L84.69 203.02L84.18 202.38L83.69 201.74L83.21 201.09L82.74 200.43L82.28 199.77L81.82 199.10L81.38 198.43L80.95 197.75L80.53 197.07L80.12 196.38L79.72 195.69L79.33 194.99L78.95 194.29L78.58 193.59L78.22 192.88L77.87 192.17L77.53 191.45L77.20 190.73L76.88 190.01L76.58 189.28L76.28 188.56L75.99 187.83L75.72 187.09L75.45 186.36L75.20 185.62L74.96 184.88L74.72 184.14L74.50 183.40L74.29 182.66L74.09 181.91L73.89 181.17L73.71 180.42L73.54 179.68L73.38 178.93L73.23 178.19L73.09 177.44L72.96 176.70L72.84 175.95L72.73 175.21L72.63 174.46L72.54 173.72L72.46 172.98L72.39 172.24L72.32 171.50L72.27 170.76L72.23 170.03L72.20 169.29L72.17 168.56L72.16 167.83L72.15 167.10L72.16 166.38L72.17 165.66L72.19 164.94L72.22 164.22L72.26 163.51L72.30 162.80L72.36 162.10L72.42 161.39L72.49 160.70L72.57 160.00L72.66 159.31L72.76 158.62L72.86 157.94L72.97 157.26L73.09 156.59L73.21 155.92L73.34 155.25L73.48 154.59L73.63 153.93L73.78 153.28L73.94 152.64L74.11 152.00L74.28 151.36L74.46 150.73L74.64 150.10L74.83 149.48L75.02 148.87L75.22 148.26L75.43 147.65L75.64 147.06L75.86 146.46L76.08 145.88L76.31 145.30L76.54 144.72L76.77 144.15L77.01 143.59L77.26 143.03L77.50 142.48L77.75 141.93L78.01 141.39L78.27 140.86L78.53 140.33L78.80 139.81L79.06 139.30L79.33 138.79L79.61 138.29L79.89 137.79L80.16 137.30L80.45 136.81L80.73 136.34L81.01 135.86L81.30 135.40L81.59 134.94L81.88 134.48L82.17 134.03L82.47 133.59L82.76 133.15L83.06 132.72L83.35 132.30L83.65 131.88L83.95 131.47L84.25 131.06L84.54 130.66L84.84 130.26L85.14 129.87L85.44 129.49L85.74 129.11L86.03 128.73L86.33 128.36L86.63 128.00L86.92 127.64L87.22 127.29L87.51 126.94L87.81 126.60L88.10 126.26L88.39 125.92L88.68 125.59L88.96 125.27L89.25 124.95L89.53 124.63L89.82 124.32L90.10 124.02L90.38 123.71L90.65 123.41L90.93 123.12L91.20 122.83L91.47 122.54L91.74 122.26L92.00 121.98L92.26 121.70L92.52 121.42L92.78 121.15L93.04 120.89L93.29 120.62L93.54 120.36L93.78 120.10L94.03 119.84L94.27 119.59L94.50 119.34L94.74 119.09L94.97 118.84L95.20 118.59L95.42 118.35L95.64 118.11L95.86 117.87L96.08 117.63L96.29 117.39L96.50 117.15L96.70 116.92L96.91 116.68L97.10 116.45L97.30 116.22L97.49 115.98L97.68 115.75L97.87 115.52L98.05 115.29L98.23 115.06L98.41 114.82L98.58 114.59L98.75 114.36L98.92 114.13L99.08 113.90L99.24 113.66L99.40 113.43L99.55 113.19L99.71 112.96L99.86 112.72L100.00 112.48L100.15 112.24L100.29 112.00L100.43 111.76L100.56 111.51L100.69 111.27L100.83 111.02L100.95 110.77L101.08 110.52L101.20 110.26L101.33 110.01L101.45 109.75L101.56 109.49L101.68 109.23L101.79 108.96L101.91 108.69L102.02 108.42L102.12 108.15L102.23 107.87L102.34 107.59L102.44 107.31L102.55 107.02L102.65 106.73L102.75 106.44L102.85 106.14L102.96 105.84L103.06 105.54L103.16 105.23L103.25 104.92L103.35 104.61L103.45 104.29L103.55 103.97L103.65 103.65L103.75 103.32L103.85 102.99L103.95 102.66L104.05 102.32L104.15 101.97L104.25 101.63L104.36 101.28L104.46 100.92L104.57 100.56L104.68 100.20L104.78 99.84L104.89 99.47L105.01 99.09L105.12 98.72L105.24 98.33L105.35 97.95L105.48 97.56L105.60 97.17L105.72 96.77L105.85 96.37L105.98 95.97L106.12 95.56L106.26 95.15L106.40 94.73L106.54 94.31L106.69 93.89L106.84 93.47L106.99 93.04L107.15 92.61L107.31 92.17L107.48 91.73L107.65 91.29L107.83 90.85L108.01 90.40L108.19 89.95L108.38 89.49L108.57 89.04L108.77 88.58L108.98 88.12L109.19 87.65L109.40 87.18L109.62 86.72L109.84 86.25L110.08 85.77L110.31 85.30L110.55 84.82L110.80 84.34L111.06 83.86L111.32 83.38L111.58 82.89L111.86 82.41L112.13 81.92L112.42 81.44L112.71 80.95L113.01 80.46L113.32 79.97L113.63 79.48L113.95 78.99L114.27 78.50L114.61 78.01L114.94 77.52L115.29 77.03" fill="none" stroke="url(#kg)" stroke-width="12" stroke-linecap="round" stroke-linejoin="round"/><path d="M145.53 55.00L146.26 54.77L146.99 54.56L147.73 54.35L148.48 54.16L149.23 53.97L149.98 53.79L150.74 53.62L151.50 53.46L152.27 53.32L153.04 53.18L153.81 53.05L154.58 52.93L155.36 52.82L156.14 52.73L156.93 52.64L157.71 52.57L158.50 52.50L159.30 52.45L160.09 52.40L160.88 52.37L161.68 52.35L162.48 52.34L163.28 52.34L164.08 52.35L164.88 52.38L165.69 52.41L166.49 52.46L167.29 52.52L168.10 52.59L168.90 52.67L169.71 52.76L170.51 52.86L171.31 52.98L172.12 53.11L172.92 53.24L173.72 53.40L174.52 53.56L175.31 53.73L176.11 53.92L176.90 54.12L177.69 54.32L178.48 54.55L179.27 54.78L180.05 55.02L180.84 55.28L181.61 55.55L182.39 55.83L183.16 56.12L183.93 56.42L184.69 56.73L185.45 57.06L186.20 57.40L186.95 57.74L187.70 58.10L188.44 58.47L189.17 58.86L189.90 59.25L190.63 59.65L191.35 60.07L192.06 60.50L192.77 60.93L193.47 61.38L194.16 61.84L194.85 62.31L195.53 62.79L196.20 63.28L196.87 63.78L197.53 64.29L198.18 64.81L198.82 65.34L199.46 65.88L200.09 66.43L200.70 66.99L201.32 67.56L201.92 68.14L202.51 68.73L203.10 69.33L203.67 69.93L204.24 70.55L204.80 71.17L205.35 71.80L205.89 72.44L206.41 73.09L206.93 73.75L207.44 74.42L207.94 75.09L208.43 75.77L208.91 76.46L209.38 77.15L209.83 77.85L210.28 78.56L210.71 79.28L211.14 80.00L211.55 80.73L211.95 81.46L212.34 82.20L212.72 82.95L213.09 83.70L213.45 84.46L213.79 85.22L214.13 85.99L214.45 86.77L214.76 87.54L215.05 88.33L215.34 89.11L215.61 89.90L215.88 90.70L216.12 91.50L216.36 92.30L216.59 93.11L216.80 93.91L217.00 94.72L217.19 95.54L217.36 96.36L217.52 97.17L217.67 98.00L217.81 98.82L217.94 99.64L218.05 100.47L218.15 101.30L218.24 102.12L218.31 102.95L218.38 103.78L218.43 104.61L218.46 105.44L218.49 106.28L218.50 107.11L218.50 107.94L218.49 108.77L218.47 109.59L218.43 110.42L218.38 111.25L218.32 112.07L218.25 112.90L218.16 113.72L218.06 114.54L217.95 115.36L217.83 116.17L217.70 116.99L217.55 117.80L217.40 118.60L217.23 119.41L217.05 120.21L216.86 121.01L216.65 121.80L216.44 122.59L216.21 123.38L215.98 124.16L215.73 124.94L215.47 125.71L215.20 126.48L214.92 127.24L214.63 128.00L214.33 128.75L214.01 129.50L213.69 130.24L213.36 130.98L213.02 131.71L212.67 132.44L212.30 133.16L211.93 133.87L211.55 134.58L211.16 135.28L210.76 135.97L210.36 136.66L209.94 137.34L209.51 138.01L209.08 138.67L208.64 139.33L208.19 139.98L207.73 140.63L207.26 141.26L206.78 141.89L206.30 142.51L205.81 143.13L205.32 143.73L204.81 144.33L204.30 144.92L203.78 145.50L203.26 146.07L202.73 146.63L202.19 147.19L201.65 147.73L201.10 148.27L200.54 148.80L199.98 149.32L199.42 149.83L198.85 150.34L198.27 150.83L197.69 151.32L197.11 151.80L196.52 152.26L195.92 152.72L195.33 153.17L194.72 153.61L194.12 154.04L193.51 154.47L192.90 154.88L192.28 155.29L191.66 155.68L191.04 156.07L190.42 156.44L189.79 156.81L189.16 157.17L188.53 157.52L187.90 157.86L187.26 158.20L186.63 158.52L185.99 158.83L185.35 159.14L184.71 159.43L184.07 159.72L183.43 160.00L182.78 160.27L182.14 160.53L181.50 160.78L180.85 161.03L180.21 161.26L179.57 161.49L178.93 161.71L178.29 161.92L177.64 162.12L177.00 162.31L176.37 162.50L175.73 162.68L175.09 162.85L174.46 163.01L173.82 163.16L173.19 163.31L172.56 163.44L171.93 163.58L171.31 163.70L170.68 163.81L170.06 163.92L169.44 164.03L168.83 164.12L168.21 164.21L167.60 164.29L166.99 164.36L166.39 164.43L165.79 164.49L165.19 164.55L164.60 164.60L164.00 164.64L163.42 164.68L162.83 164.71L162.25 164.73L161.68 164.75L161.10 164.77L160.53 164.77L159.97 164.78L159.41 164.78L158.85 164.77L158.30 164.76L157.75 164.74L157.21 164.72L156.67 164.70L156.14 164.67L155.61 164.64L155.08 164.60L154.56 164.56L154.05 164.52L153.54 164.47L153.03 164.42L152.53 164.36L152.03 164.31L151.54 164.25L151.05 164.18L150.57 164.12L150.09 164.05L149.62 163.98L149.15 163.90L148.69 163.83L148.23 163.75L147.77 163.67L147.33 163.59L146.88 163.51L146.44 163.43L146.01 163.34L145.58 163.26L145.15 163.17L144.73 163.08L144.32 162.99L143.91 162.91L143.50 162.82L143.10 162.73L142.70 162.64L142.31 162.55L141.92 162.46L141.54 162.37L141.16 162.28L140.78 162.19L140.41 162.10L140.04 162.01L139.68 161.92L139.32 161.84L138.97 161.75L138.61 161.67L138.27 161.58L137.92 161.50L137.58 161.42L137.25 161.34L136.91 161.26L136.58 161.19L136.26 161.11L135.93 161.04L135.61 160.97L135.29 160.90L134.98 160.83L134.67 160.77L134.36 160.71L134.05 160.65L133.75 160.59L133.44 160.53L133.14 160.48L132.85 160.43L132.55 160.38L132.26 160.34L131.97 160.29L131.67 160.25L131.39 160.22L131.10 160.18L130.81 160.15L130.53 160.12L130.24 160.10L129.96 160.07L129.68 160.05L129.40 160.04L129.12 160.02L128.84 160.01L128.56 160.01L128.28 160.00L128.00 160.00L127.72 160.00L127.44 160.01L127.16 160.01L126.88 160.02L126.60 160.04L126.32 160.05L126.04 160.07L125.76 160.10L125.47 160.12L125.19 160.15L124.90 160.18L124.61 160.22L124.33 160.25L124.03 160.29L123.74 160.34L123.45 160.38L123.15 160.43L122.86 160.48L122.56 160.53L122.25 160.59L121.95 160.65L121.64 160.71L121.33 160.77L121.02 160.83L120.71 160.90L120.39 160.97L120.07 161.04L119.74 161.11L119.42 161.19L119.09 161.26L118.75 161.34L118.42 161.42L118.08 161.50L117.73 161.58L117.39 161.67L117.03 161.75L116.68 161.84L116.32 161.92L115.96 162.01L115.59 162.10L115.22 162.19L114.84 162.28L114.46 162.37L114.08 162.46L113.69 162.55L113.30 162.64L112.90 162.73L112.50 162.82L112.09 162.91L111.68 162.99L111.27 163.08L110.85 163.17L110.42 163.26L109.99 163.34L109.56 163.43L109.12 163.51L108.67 163.59L108.23 163.67L107.77 163.75L107.31 163.83L106.85 163.90L106.38 163.98L105.91 164.05L105.43 164.12L104.95 164.18L104.46 164.25L103.97 164.31L103.47 164.36L102.97 164.42L102.46 164.47L101.95 164.52L101.44 164.56L100.92 164.60L100.39 164.64L99.86 164.67L99.33 164.70L98.79 164.72L98.25 164.74L97.70 164.76L97.15 164.77L96.59 164.78L96.03 164.78L95.47 164.77L94.90 164.77L94.32 164.75L93.75 164.73L93.17 164.71L92.58 164.68L92.00 164.64L91.40 164.60L90.81 164.55L90.21 164.49" fill="none" stroke="url(#kg)" stroke-width="12" stroke-linecap="round" stroke-linejoin="round"/><path d="M56.02 149.32L55.46 148.80L54.90 148.27L54.35 147.73L53.81 147.19L53.27 146.63L52.74 146.07L52.22 145.50L51.70 144.92L51.19 144.33L50.68 143.73L50.19 143.13L49.70 142.51L49.22 141.89L48.74 141.26L48.27 140.63L47.81 139.98L47.36 139.33L46.92 138.67L46.49 138.01L46.06 137.34L45.64 136.66L45.24 135.97L44.84 135.28L44.45 134.58L44.07 133.87L43.70 133.16L43.33 132.44L42.98 131.71L42.64 130.98L42.31 130.24L41.99 129.50L41.67 128.75L41.37 128.00L41.08 127.24L40.80 126.48L40.53 125.71L40.27 124.94L40.02 124.16L39.79 123.38L39.56 122.59L39.35 121.80L39.14 121.01L38.95 120.21L38.77 119.41L38.60 118.60L38.45 117.80L38.30 116.99L38.17 116.17L38.05 115.36L37.94 114.54L37.84 113.72L37.75 112.90L37.68 112.07L37.62 111.25L37.57 110.42L37.53 109.59L37.51 108.77L37.50 107.94L37.50 107.11L37.51 106.28L37.54 105.44L37.57 104.61L37.62 103.78L37.69 102.95L37.76 102.12L37.85 101.30L37.95 100.47L38.06 99.64L38.19 98.82L38.33 98.00L38.48 97.17L38.64 96.36L38.81 95.54L39.00 94.72L39.20 93.91L39.41 93.11L39.64 92.30L39.88 91.50L40.12 90.70L40.39 89.90L40.66 89.11L40.95 88.33L41.24 87.54L41.55 86.77L41.87 85.99L42.21 85.22L42.55 84.46L42.91 83.70L43.28 82.95L43.66 82.20L44.05 81.46L44.45 80.73L44.86 80.00L45.29 79.28L45.72 78.56L46.17 77.85L46.62 77.15L47.09 76.46L47.57 75.77L48.06 75.09L48.56 74.42L49.07 73.75L49.59 73.09L50.11 72.44L50.65 71.80L51.20 71.17L51.76 70.55L52.33 69.93L52.90 69.33L53.49 68.73L54.08 68.14L54.68 67.56L55.30 66.99L55.91 66.43L56.54 65.88L57.18 65.34L57.82 64.81L58.47 64.29L59.13 63.78L59.80 63.28L60.47 62.79L61.15 62.31L61.84 61.84L62.53 61.38L63.23 60.93L63.94 60.50L64.65 60.07L65.37 59.65L66.10 59.25L66.83 58.86L67.56 58.47L68.30 58.10L69.05 57.74L69.80 57.40L70.55 57.06L71.31 56.73L72.07 56.42L72.84 56.12L73.61 55.83L74.39 55.55L75.16 55.28L75.95 55.02L76.73 54.78L77.52 54.55L78.31 54.32L79.10 54.12L79.89 53.92L80.69 53.73L81.48 53.56L82.28 53.40L83.08 53.24L83.88 53.11L84.69 52.98L85.49 52.86L86.29 52.76L87.10 52.67L87.90 52.59L88.71 52.52L89.51 52.46L90.31 52.41L91.12 52.38L91.92 52.35L92.72 52.34L93.52 52.34L94.32 52.35L95.12 52.37L95.91 52.40L96.70 52.45L97.50 52.50L98.29 52.57L99.07 52.64L99.86 52.73L100.64 52.82L101.42 52.93L102.19 53.05L102.96 53.18L103.73 53.32L104.50 53.46L105.26 53.62L106.02 53.79L106.77 53.97L107.52 54.16L108.27 54.35L109.01 54.56L109.74 54.77L110.47 55.00L111.20 55.23L111.92 55.47L112.64 55.73L113.35 55.99L114.05 56.25L114.75 56.53L115.45 56.82L116.14 57.11L116.82 57.41L117.50 57.72L118.17 58.03L118.83 58.36L119.49 58.69L120.14 59.03L120.79 59.37L121.43 59.72L122.06 60.08L122.68 60.45L123.30 60.82L123.91 61.20L124.52 61.58L125.12 61.97L125.71 62.37L126.29 62.77L126.87 63.17L127.44 63.58L128.00 64.00L128.55 64.42L129.10 64.85L129.64 65.28L130.18 65.71L130.70 66.15L131.22 66.59L131.73 67.04L132.23 67.49L132.73 67.95L133.21 68.40L133.69 68.87L134.17 69.33L134.63 69.80L135.09 70.27L135.54 70.74L135.98 71.21L136.42 71.69L136.84 72.17L137.26 72.65L137.68 73.13L138.08 73.61L138.48 74.10L138.87 74.58L139.25 75.07L139.63 75.56L139.99 76.05L140.35 76.54L140.71 77.03L141.06 77.52L141.39 78.01L141.73 78.50L142.05 78.99L142.37 79.48L142.68 79.97L142.99 80.46L143.29 80.95L143.58 81.44L143.87 81.92L144.14 82.41L144.42 82.89L144.68 83.38L144.94 83.86L145.20 84.34L145.45 84.82L145.69 85.30L145.92 85.77L146.16 86.25L146.38 86.72L146.60 87.18L146.81 87.65L147.02 88.12L147.23 88.58L147.43 89.04L147.62 89.49L147.81 89.95L147.99 90.40L148.17 90.85L148.35 91.29L148.52 91.73L148.69 92.17L148.85 92.61L149.01 93.04L149.16 93.47L149.31 93.89L149.46 94.31L149.60 94.73L149.74 95.15L149.88 95.56L150.02 95.97L150.15 96.37L150.28 96.77L150.40 97.17L150.52 97.56L150.65 97.95L150.76 98.33L150.88 98.72L150.99 99.09L151.11 99.47L151.22 99.84L151.32 100.20L151.43 100.56L151.54 100.92L151.64 101.28L151.75 101.63L151.85 101.97L151.95 102.32L152.05 102.66L152.15 102.99L152.25 103.32L152.35 103.65L152.45 103.97L152.55 104.29L152.65 104.61L152.75 104.92L152.84 105.23L152.94 105.54L153.04 105.84L153.15 106.14L153.25 106.44L153.35 106.73L153.45 107.02L153.56 107.31L153.66 107.59L153.77 107.87L153.88 108.15L153.98 108.42L154.09 108.69L154.21 108.96L154.32 109.23L154.44 109.49L154.55 109.75L154.67 110.01L154.80 110.26L154.92 110.52L155.05 110.77L155.17 111.02L155.31 111.27L155.44 111.51L155.57 111.76L155.71 112.00L155.85 112.24L156.00 112.48L156.14 112.72L156.29 112.96L156.45 113.19L156.60 113.43L156.76 113.66L156.92 113.90L157.08 114.13L157.25 114.36L157.42 114.59L157.59 114.82L157.77 115.06L157.95 115.29L158.13 115.52L158.32 115.75L158.51 115.98L158.70 116.22L158.90 116.45L159.09 116.68L159.30 116.92L159.50 117.15L159.71 117.39L159.92 117.63L160.14 117.87L160.36 118.11L160.58 118.35L160.80 118.59L161.03 118.84L161.26 119.09L161.50 119.34L161.73 119.59L161.97 119.84L162.22 120.10L162.46 120.36L162.71 120.62L162.96 120.89L163.22 121.15L163.48 121.42L163.74 121.70L164.00 121.98L164.26 122.26L164.53 122.54L164.80 122.83L165.07 123.12L165.35 123.41L165.62 123.71L165.90 124.02L166.18 124.32L166.47 124.63L166.75 124.95L167.04 125.27L167.32 125.59L167.61 125.92L167.90 126.26L168.19 126.60L168.49 126.94L168.78 127.29L169.08 127.64L169.37 128.00L169.67 128.36L169.97 128.73L170.26 129.11L170.56 129.49L170.86 129.87L171.16 130.26L171.46 130.66L171.75 131.06L172.05 131.47L172.35 131.88L172.65 132.30L172.94 132.72L173.24 133.15L173.53 133.59L173.83 134.03L174.12 134.48L174.41 134.94L174.70 135.40L174.99 135.86L175.27 136.34L175.55 136.81L175.84 137.30L176.11 137.79L176.39 138.29L176.67 138.79L176.94 139.30L177.20 139.81L177.47 140.33L177.73 140.86L177.99 141.39L178.25 141.93L178.50 142.48" fill="none" stroke="url(#kg)" stroke-width="12" stroke-linecap="round" stroke-linejoin="round"/><path d="M183.73 170.76L183.68 171.50L183.61 172.24L183.54 172.98L183.46 173.72L183.37 174.46L183.27 175.21L183.16 175.95L183.04 176.70L182.91 177.44L182.77 178.19L182.62 178.93L182.46 179.68L182.29 180.42L182.11 181.17L181.91 181.91L181.71 182.66L181.50 183.40L181.28 184.14L181.04 184.88L180.80 185.62L180.55 186.36L180.28 187.09L180.01 187.83L179.72 188.56L179.42 189.28L179.12 190.01L178.80 190.73L178.47 191.45L178.13 192.17L177.78 192.88L177.42 193.59L177.05 194.29L176.67 194.99L176.28 195.69L175.88 196.38L175.47 197.07L175.05 197.75L174.62 198.43L174.18 199.10L173.72 199.77L173.26 200.43L172.79 201.09L172.31 201.74L171.82 202.38L171.31 203.02L170.80 203.65L170.28 204.28L169.75 204.90L169.21 205.51L168.66 206.11L168.10 206.71L167.53 207.29L166.96 207.87L166.37 208.45L165.78 209.01L165.17 209.57L164.56 210.12L163.94 210.66L163.31 211.19L162.67 211.71L162.03 212.22L161.37 212.73L160.71 213.22L160.04 213.71L159.37 214.18L158.68 214.65L157.99 215.10L157.29 215.55L156.59 215.98L155.88 216.41L155.16 216.82L154.43 217.23L153.70 217.62L152.96 218.00L152.22 218.38L151.47 218.74L150.71 219.09L149.95 219.42L149.18 219.75L148.41 220.07L147.63 220.37L146.85 220.66L146.07 220.94L145.28 221.21L144.48 221.47L143.68 221.71L142.88 221.94L142.07 222.17L141.26 222.37L140.45 222.57L139.63 222.75L138.82 222.92L137.99 223.08L137.17 223.23L136.34 223.36L135.51 223.48L134.68 223.59L133.85 223.69L133.02 223.77L132.18 223.84L131.35 223.90L130.51 223.94L129.68 223.97L128.84 223.99L128.00 224.00" fill="none" stroke="url(#kg)" stroke-width="12" stroke-linecap="round" stroke-linejoin="round"/></svg>
<text x="296" y="130" font-family="'Space Grotesk','Segoe UI',system-ui,-apple-system,sans-serif" font-size="64" font-weight="700" letter-spacing="-2"><tspan fill="#2D4BFF">KNOT</tspan><tspan fill="#8A8F9C">store</tspan></text>
<g transform="translate(298,152)" stroke="#8A8F9C" stroke-width="2.4" fill="none" stroke-linejoin="round"><polygon points="12,2 23,8 23,18 12,24 1,18 1,8"/><path d="M12,2 V13 M12,13 L23,8 M12,13 L1,8"/></g>
<text x="332" y="172" font-family="'JetBrains Mono','SF Mono',ui-monospace,monospace" font-size="18" letter-spacing="5" fill="#8A8F9C">OBJECT  STORAGE</text>
</svg>